# Blender v2.82 (sub 7) OBJ File: 'Barrel.blend'
# www.blender.org
o Barrel_Cylinder
v 0.000000 0.026082 -0.633531
v 0.000000 2.297482 -0.633531
v 0.316766 0.026082 -0.548654
v 0.316766 2.276082 -0.548654
v 0.548654 0.026082 -0.316766
v 0.548654 2.254856 -0.316766
v 0.633531 0.026082 0.000000
v 0.633531 2.276082 0.000000
v 0.548654 0.026082 0.316766
v 0.548654 2.276082 0.316766
v 0.316766 0.026082 0.548654
v 0.316766 2.298683 0.548654
v 0.000000 0.026082 0.633531
v 0.000000 2.276082 0.633531
v -0.316766 0.026082 0.548654
v -0.316766 2.241849 0.548654
v -0.548654 0.026082 0.316766
v -0.548654 2.276082 0.316766
v -0.633531 0.026082 0.000000
v -0.633531 2.276082 0.000000
v -0.548654 0.026082 -0.316765
v -0.548654 2.258664 -0.316765
v -0.316766 0.026082 -0.548654
v -0.316766 2.276082 -0.548654
v -0.000000 0.701082 -0.975596
v -0.000000 1.601082 -0.921244
v 0.460622 1.601082 -0.797820
v 0.487798 0.701082 -0.844890
v 0.797820 1.601082 -0.460622
v 0.844891 0.701082 -0.487798
v 0.921244 1.601082 0.000000
v 0.975596 0.701082 0.000000
v 0.797820 1.601082 0.460622
v 0.844891 0.701082 0.487798
v 0.460622 1.601082 0.797820
v 0.487798 0.701082 0.844891
v 0.000000 1.601082 0.921244
v 0.000000 0.701082 0.975596
v -0.460622 1.601082 0.797821
v -0.487798 0.701082 0.844891
v -0.797820 1.601082 0.460622
v -0.844890 0.701082 0.487798
v -0.921244 1.601082 0.000000
v -0.975596 0.701082 0.000000
v -0.797821 1.601082 -0.460621
v -0.844891 0.701082 -0.487797
v -0.460622 1.601082 -0.797820
v -0.487798 0.701082 -0.844890
v 0.375000 2.276082 -0.649519
v -0.000000 2.297482 -0.750000
v 0.649519 2.254856 -0.375000
v 0.750000 2.276082 0.000000
v 0.649519 2.276082 0.375000
v 0.375000 2.298683 0.649519
v 0.000000 2.276082 0.750000
v -0.375000 2.241849 0.649519
v -0.649519 2.276082 0.375000
v -0.750000 2.276082 0.000000
v -0.649519 2.258664 -0.375000
v -0.375000 2.276082 -0.649519
v -0.000000 0.026082 -0.750000
v 0.375000 0.026082 -0.649519
v 0.649519 0.026082 -0.375000
v 0.750000 0.026082 0.000000
v 0.649519 0.026082 0.375000
v 0.375000 0.026082 0.649519
v 0.000000 0.026082 0.750000
v -0.375000 0.026082 0.649519
v -0.649519 0.026082 0.375000
v -0.750000 0.026082 0.000000
v -0.649519 0.026082 -0.375000
v -0.375000 0.026082 -0.649519
v 0.316766 2.163582 -0.548654
v 0.000000 2.163582 -0.633531
v 0.548654 2.163582 -0.316766
v 0.633531 2.163582 0.000000
v 0.548654 2.163582 0.316766
v 0.316766 2.163582 0.548654
v 0.000000 2.163582 0.633531
v -0.316766 2.163582 0.548654
v -0.548654 2.163582 0.316766
v -0.633531 2.163582 0.000000
v -0.548654 2.163582 -0.316765
v -0.316766 2.163582 -0.548654
v 0.000000 0.138582 -0.633531
v 0.316766 0.138582 -0.548654
v 0.548654 0.138582 -0.316766
v 0.633531 0.138582 0.000000
v 0.548654 0.138582 0.316766
v 0.316766 0.138582 0.548654
v 0.000000 0.138582 0.633531
v -0.316766 0.138582 0.548654
v -0.548654 0.138582 0.316766
v -0.633531 0.138582 0.000000
v -0.548654 0.138582 -0.316765
v -0.316766 0.138582 -0.548654
v -0.000000 0.813582 -0.921244
v -0.000000 1.488582 -0.921244
v 0.460622 1.488582 -0.797820
v 0.460622 0.813582 -0.797820
v 0.797820 1.488582 -0.460622
v 0.797820 0.813582 -0.460622
v 0.921244 1.488582 0.000000
v 0.921244 0.813582 0.000000
v 0.797820 1.488582 0.460622
v 0.797820 0.813582 0.460622
v 0.460622 1.488582 0.797820
v 0.460622 0.813582 0.797820
v 0.000000 1.488582 0.921244
v 0.000000 0.813582 0.921244
v -0.460622 1.488582 0.797821
v -0.460622 0.813582 0.797821
v -0.797820 1.488582 0.460622
v -0.797820 0.813582 0.460622
v -0.921244 1.488582 0.000000
v -0.921244 0.813582 0.000000
v -0.797821 1.488582 -0.460621
v -0.797821 0.813582 -0.460621
v -0.460622 1.488582 -0.797820
v -0.460622 0.813582 -0.797820
v -0.000000 1.488582 -0.921244
v -0.000000 1.601082 -0.975596
v -0.487798 1.601082 -0.844890
v -0.844891 1.601082 -0.487797
v -0.975596 1.601082 0.000000
v -0.844890 1.601082 0.487798
v -0.487798 1.601082 0.844891
v 0.000000 1.601082 0.975596
v 0.487798 1.601082 0.844891
v 0.844891 1.601082 0.487798
v 0.975596 1.601082 0.000000
v 0.844891 1.601082 -0.487798
v 0.487798 1.601082 -0.844890
v 0.460622 1.488582 -0.797820
v 0.844891 1.488582 -0.487798
v 0.975596 1.488582 0.000000
v 0.797820 1.488582 0.460622
v 0.487798 1.488582 0.844891
v 0.000000 1.488582 0.975596
v -0.460622 1.488582 0.797821
v -0.797820 1.488582 0.460622
v -0.975596 1.488582 0.000000
v -0.844891 1.488582 -0.487797
v -0.460622 1.488582 -0.797820
v -0.460622 0.701082 -0.797820
v -0.000000 0.701082 -0.921244
v -0.797821 0.701082 -0.460621
v -0.921244 0.701082 0.000000
v -0.797820 0.701082 0.460622
v -0.460622 0.701082 0.797821
v 0.000000 0.701082 0.921244
v 0.460622 0.701082 0.797820
v 0.797820 0.701082 0.460622
v 0.921244 0.701082 0.000000
v 0.797820 0.701082 -0.460622
v 0.460622 0.701082 -0.797820
v -0.000000 0.813582 -0.975596
v 0.487798 0.813582 -0.844890
v 0.844891 0.813582 -0.487798
v 0.975596 0.813582 0.000000
v 0.844891 0.813582 0.487798
v 0.487798 0.813582 0.844891
v 0.000000 0.813582 0.975596
v -0.487798 0.813582 0.844891
v -0.844890 0.813582 0.487798
v -0.975596 0.813582 0.000000
v -0.844891 0.813582 -0.487797
v -0.487798 0.813582 -0.844890
v -0.460622 1.601082 -0.797820
v -0.000000 1.601082 -0.921244
v -0.797821 1.601082 -0.460621
v -0.921244 1.601082 0.000000
v -0.797820 1.601082 0.460622
v -0.460622 1.601082 0.797821
v 0.000000 1.601082 0.921244
v 0.460622 1.601082 0.797820
v 0.797820 1.601082 0.460622
v 0.921244 1.601082 0.000000
v 0.797820 1.601082 -0.460622
v 0.460622 1.601082 -0.797820
v -0.000000 1.488582 -0.975596
v 0.487798 1.488582 -0.844890
v 0.797820 1.488582 -0.460622
v 0.921244 1.488582 0.000000
v 0.844891 1.488582 0.487798
v 0.460622 1.488582 0.797820
v 0.000000 1.488582 0.921244
v -0.487798 1.488582 0.844891
v -0.844890 1.488582 0.487798
v -0.921244 1.488582 0.000000
v -0.797821 1.488582 -0.460621
v -0.487798 1.488582 -0.844890
vt 1.000000 0.833333
vt 0.916667 1.000000
vt 0.916667 0.833333
vt 0.833333 1.000000
vt 0.833333 0.833333
vt 0.750000 0.833333
vt 0.666667 1.000000
vt 0.666667 0.833333
vt 0.583333 0.833333
vt 0.500000 1.000000
vt 0.500000 0.833333
vt 0.416667 1.000000
vt 0.416667 0.833333
vt 0.333333 0.833333
vt 0.333333 1.000000
vt 0.250000 0.833333
vt 0.166667 1.000000
vt 0.166667 0.833333
vt 0.148635 0.074431
vt 0.250000 0.047270
vt 0.148635 0.074431
vt 0.083333 0.833333
vt 0.083333 1.000000
vt 0.000000 0.833333
vt 0.648635 0.074431
vt 0.750000 0.047270
vt 0.750000 0.047270
vt 0.083333 0.666667
vt 0.000000 0.500000
vt 0.083333 0.500000
vt 0.666667 0.777778
vt 0.750000 0.777778
vt 0.666667 0.777778
vt 0.166667 0.666667
vt 0.166667 0.500000
vt 0.083333 0.833333
vt 0.166667 0.833333
vt 0.250000 0.666667
vt 0.250000 0.500000
vt 0.083333 0.777778
vt 0.166667 0.777778
vt 0.083333 0.777778
vt 0.333333 0.666667
vt 0.333333 0.500000
vt 0.666667 0.833333
vt 0.750000 0.833333
vt 0.416667 0.666667
vt 0.416667 0.500000
vt 0.416667 0.777778
vt 0.500000 0.777778
vt 0.416667 0.777778
vt 0.500000 0.666667
vt 0.500000 0.500000
vt 0.333333 0.833333
vt 0.416667 0.833333
vt 0.583333 0.666667
vt 0.583333 0.500000
vt 0.750000 0.777778
vt 0.833333 0.777778
vt 0.666667 0.666667
vt 0.666667 0.500000
vt 0.000000 0.833333
vt 0.750000 0.666667
vt 0.750000 0.500000
vt 0.916667 0.833333
vt 1.000000 0.833333
vt 0.833333 0.500000
vt 0.166667 0.777778
vt 0.250000 0.777778
vt 0.916667 0.666667
vt 0.916667 0.500000
vt 0.583333 0.833333
vt 1.000000 0.666667
vt 1.000000 0.500000
vt 0.500000 0.777778
vt 0.583333 0.777778
vt 0.250000 0.452730
vt 0.370000 0.457846
vt 0.250000 0.490000
vt 0.351365 0.425570
vt 0.457846 0.370000
vt 0.425569 0.351365
vt 0.490000 0.250000
vt 0.425569 0.148635
vt 0.452730 0.250000
vt 0.351365 0.074431
vt 0.457846 0.130000
vt 0.250000 0.010000
vt 0.370000 0.042154
vt 0.250000 0.047270
vt 0.074431 0.148635
vt 0.130000 0.042154
vt 0.047270 0.250000
vt 0.042154 0.130000
vt 0.074431 0.351365
vt 0.010000 0.250000
vt 0.148635 0.425569
vt 0.042154 0.370000
vt 0.130000 0.457846
vt 0.750000 0.452730
vt 0.870000 0.457846
vt 0.851365 0.425570
vt 0.957846 0.370000
vt 0.925570 0.351365
vt 0.990000 0.250000
vt 0.952730 0.250000
vt 0.925570 0.148635
vt 0.957846 0.130000
vt 0.851365 0.074431
vt 0.870000 0.042154
vt 0.750000 0.010000
vt 0.630000 0.042154
vt 0.542154 0.130000
vt 0.574431 0.148635
vt 0.547270 0.250000
vt 0.510000 0.250000
vt 0.542154 0.370000
vt 0.574431 0.351365
vt 0.630000 0.457846
vt 0.648635 0.425569
vt 0.750000 0.490000
vt 0.250000 0.452730
vt 0.074431 0.351365
vt 0.351365 0.425570
vt 0.425569 0.148635
vt 0.148635 0.425569
vt 0.074431 0.148635
vt 0.351365 0.074431
vt 0.425569 0.351365
vt 0.047270 0.250000
vt 0.452730 0.250000
vt 0.851365 0.425570
vt 0.648635 0.425569
vt 0.750000 0.452730
vt 0.952730 0.250000
vt 0.574431 0.351365
vt 0.648635 0.074431
vt 0.925570 0.148635
vt 0.574431 0.148635
vt 0.851365 0.074431
vt 0.925570 0.351365
vt 0.547270 0.250000
vt 1.000000 0.777778
vt 0.916667 0.722222
vt 1.000000 0.722222
vt 0.916667 0.777778
vt 0.833333 0.722222
vt 0.833333 0.777778
vt 0.750000 0.722222
vt 0.666667 0.722222
vt 0.583333 0.722222
vt 0.583333 0.777778
vt 0.500000 0.722222
vt 0.416667 0.722222
vt 0.333333 0.722222
vt 0.333333 0.777778
vt 0.250000 0.722222
vt 0.250000 0.777778
vt 0.166667 0.722222
vt 0.083333 0.722222
vt 0.000000 0.722222
vt 0.500000 0.833333
vt 0.333333 0.777778
vt 0.833333 0.833333
vt 0.000000 0.777778
vt 0.000000 0.777778
vt 0.250000 0.833333
vt 1.000000 0.777778
vt 0.916667 0.777778
vt 1.000000 1.000000
vt 0.750000 1.000000
vt 0.583333 1.000000
vt 0.250000 1.000000
vt 0.000000 1.000000
vt 0.000000 0.666667
vt 0.833333 0.666667
vt 1.000000 0.722222
vt 0.916667 0.666667
vt 1.000000 0.666667
vt 0.916667 0.722222
vt 0.833333 0.666667
vt 0.833333 0.722222
vt 0.750000 0.666667
vt 0.750000 0.722222
vt 0.666667 0.666667
vt 0.666667 0.722222
vt 0.583333 0.666667
vt 0.583333 0.722222
vt 0.500000 0.666667
vt 0.500000 0.722222
vt 0.416667 0.666667
vt 0.416667 0.722222
vt 0.333333 0.666667
vt 0.333333 0.722222
vt 0.250000 0.666667
vt 0.250000 0.722222
vt 0.166667 0.666667
vt 0.166667 0.722222
vt 0.083333 0.666667
vt 0.083333 0.722222
vt 0.000000 0.666667
vt 0.083333 0.833333
vt 0.000000 0.777778
vt 0.083333 0.777778
vt 0.166667 0.833333
vt 0.166667 0.777778
vt 0.250000 0.833333
vt 0.250000 0.777778
vt 0.333333 0.833333
vt 0.333333 0.777778
vt 0.416667 0.833333
vt 0.416667 0.777778
vt 0.500000 0.833333
vt 0.500000 0.777778
vt 0.583333 0.833333
vt 0.583333 0.777778
vt 0.666667 0.833333
vt 0.666667 0.777778
vt 0.750000 0.833333
vt 0.750000 0.777778
vt 0.833333 0.833333
vt 0.833333 0.777778
vt 0.916667 0.833333
vt 0.916667 0.777778
vt 1.000000 0.833333
vt 1.000000 0.777778
vt 0.000000 0.722222
vt 0.000000 0.833333
vn 0.2514 0.2380 -0.9382
vn 0.6855 0.2453 -0.6855
vn 0.9364 0.2453 -0.2509
vn 0.9382 0.2380 0.2514
vn 0.6868 0.2380 0.6868
vn 0.2514 0.2380 0.9382
vn -0.2506 0.2499 0.9353
vn -0.6847 0.2499 0.6847
vn -0.9382 0.2380 0.2514
vn -0.9367 0.2439 -0.2510
vn 0.2588 0.0000 -0.9659
vn -0.6857 0.2439 -0.6857
vn -0.2514 0.2380 -0.9382
vn -0.2514 -0.2380 -0.9382
vn 0.0000 0.0000 1.0000
vn -0.6868 -0.2380 -0.6868
vn -0.9382 -0.2380 -0.2514
vn -0.9382 -0.2380 0.2514
vn -0.6868 -0.2380 0.6868
vn -0.2514 -0.2380 0.9382
vn 0.2514 -0.2380 0.9382
vn 0.6868 -0.2380 0.6868
vn 0.9382 -0.2380 0.2514
vn 0.9382 -0.2380 -0.2514
vn 0.6868 -0.2380 -0.6868
vn 0.2514 -0.2380 -0.9382
vn 0.0570 0.9984 0.0000
vn 0.0489 0.9984 0.0283
vn -0.0283 0.9984 -0.0489
vn 0.0000 1.0000 0.0000
vn 0.0356 0.9975 -0.0616
vn -0.0521 0.9982 0.0301
vn -0.1074 0.9942 -0.0000
vn 0.0930 0.9942 0.0537
vn -0.0000 0.9985 -0.0549
vn -0.0275 0.9985 0.0475
vn -0.0584 0.9977 0.0337
vn 0.0000 -1.0000 0.0000
vn -0.9659 0.0000 -0.2588
vn 0.7071 0.0000 0.7071
vn -0.2588 0.0000 0.9659
vn 0.7071 0.0000 -0.7071
vn -0.7071 0.0000 -0.7071
vn 0.2588 -0.0000 0.9659
vn -0.7071 0.0000 0.7071
vn 0.9659 0.0000 -0.2588
vn -0.2588 0.0000 -0.9659
vn -0.9659 0.0000 0.2588
vn 0.9659 0.0000 0.2588
vn 0.2641 0.2303 -0.9366
vn 0.6960 0.2372 -0.6777
vn 0.9349 0.2372 -0.2639
vn 0.6976 0.2299 0.6786
vn 0.2389 0.2299 0.9434
vn -0.2716 0.2367 0.9329
vn -0.6721 0.2367 0.7016
vn -0.9355 0.2373 -0.2617
vn -0.6944 0.2373 -0.6793
vn -0.2641 0.2303 -0.9366
vn 0.0584 0.9977 0.0337
vn 0.0334 0.9978 0.0579
vn 0.0000 0.9978 -0.0669
vn 0.0521 0.9982 -0.0301
vn -0.0712 0.9975 0.0000
vn -0.0787 0.9959 -0.0455
vn 0.0455 0.9959 0.0787
vn 0.0232 0.9989 -0.0402
vn -0.0402 0.9989 0.0232
vn -0.0570 0.9984 0.0000
s off
f 26/1/1 49/2/1 27/3/1
f 27/3/2 51/4/2 29/5/2
f 51/4/3 31/6/3 29/5/3
f 31/6/4 53/7/4 33/8/4
f 53/7/5 35/9/5 33/8/5
f 35/9/6 55/10/6 37/11/6
f 37/11/7 56/12/7 39/13/7
f 56/12/8 41/14/8 39/13/8
f 57/15/9 43/16/9 41/14/9
f 43/16/10 59/17/10 45/18/10
f 16/19/11 79/20/11 80/21/11
f 59/17/12 47/22/12 45/18/12
f 60/23/13 26/24/13 47/22/13
f 15/25/11 91/26/11 13/27/11
f 145/28/14 61/29/14 72/30/14
f 105/31/15 184/32/15 137/33/15
f 147/34/16 72/30/16 71/35/16
f 45/18/15 169/36/15 171/37/15
f 148/38/17 71/35/17 70/39/17
f 119/40/15 191/41/15 144/42/15
f 149/43/18 70/39/18 69/44/18
f 31/6/15 177/45/15 178/46/15
f 150/47/19 69/44/19 68/48/19
f 111/49/15 187/50/15 140/51/15
f 151/52/20 68/48/20 67/53/20
f 39/13/15 173/54/15 174/55/15
f 152/56/21 67/53/21 66/57/21
f 103/58/15 183/59/15 184/32/15
f 153/60/22 66/57/22 65/61/22
f 47/22/15 170/62/15 169/36/15
f 154/63/23 65/61/23 64/64/23
f 26/1/15 180/65/15 170/66/15
f 63/67/24 154/63/24 64/64/24
f 117/68/15 190/69/15 191/41/15
f 156/70/25 63/67/25 62/71/25
f 33/8/15 176/72/15 177/45/15
f 146/73/26 62/71/26 61/74/26
f 109/75/15 186/76/15 187/50/15
f 2/77/27 49/78/27 50/79/27
f 4/80/28 51/81/28 49/78/28
f 6/82/29 52/83/29 51/81/29
f 10/84/30 52/83/30 8/85/30
f 12/86/31 53/87/31 10/84/31
f 12/86/32 55/88/32 54/89/32
f 16/19/33 55/88/33 14/90/33
f 18/91/34 56/92/34 16/19/34
f 20/93/30 57/94/30 18/91/30
f 22/95/35 58/96/35 20/93/35
f 24/97/36 59/98/36 22/95/36
f 2/77/37 60/99/37 24/97/37
f 1/100/38 62/101/38 3/102/38
f 3/102/38 63/103/38 5/104/38
f 5/104/38 64/105/38 7/106/38
f 9/107/38 64/105/38 65/108/38
f 11/109/38 65/108/38 66/110/38
f 11/109/38 67/111/38 13/27/38
f 13/27/38 68/112/38 15/25/38
f 15/25/38 69/113/38 17/114/38
f 19/115/38 69/113/38 70/116/38
f 19/115/38 71/117/38 21/118/38
f 21/118/38 72/119/38 23/120/38
f 23/120/38 61/121/38 1/100/38
f 74/122/30 83/123/30 73/124/30
f 8/85/39 77/125/39 10/84/39
f 22/95/40 84/126/40 24/97/40
f 4/80/41 74/122/41 73/124/41
f 16/19/42 81/127/42 18/91/42
f 10/84/43 78/128/43 12/86/43
f 24/97/44 74/122/44 2/77/44
f 6/82/45 73/124/45 75/129/45
f 18/91/46 82/130/46 20/93/46
f 14/90/47 78/128/47 79/20/47
f 6/82/48 76/131/48 8/85/48
f 22/95/49 82/130/49 83/123/49
f 86/132/38 96/133/38 85/134/38
f 9/107/39 88/135/39 7/106/39
f 23/120/40 95/136/40 21/118/40
f 3/102/41 85/134/41 1/100/41
f 17/114/42 92/137/42 15/25/42
f 11/109/43 89/138/43 9/107/43
f 1/100/44 96/133/44 23/120/44
f 5/104/45 86/132/45 3/102/45
f 19/115/46 93/139/46 17/114/46
f 13/27/47 90/140/47 11/109/47
f 7/106/48 87/141/48 5/104/48
f 21/118/49 94/142/49 19/115/49
f 73/124/30 82/130/30 75/129/30
f 75/129/30 81/127/30 76/131/30
f 76/131/30 80/21/30 77/125/30
f 78/128/30 80/21/30 79/20/30
f 86/132/38 94/142/38 95/136/38
f 88/135/38 94/142/38 87/141/38
f 89/138/38 93/139/38 88/135/38
f 90/140/38 92/137/38 89/138/38
f 98/143/11 100/144/11 97/145/11
f 99/146/42 102/147/42 100/144/42
f 101/148/46 104/149/46 102/147/46
f 103/58/49 106/150/49 104/149/49
f 105/31/40 108/151/40 106/150/40
f 107/152/44 110/153/44 108/151/44
f 109/75/41 112/154/41 110/153/41
f 111/49/45 114/155/45 112/154/45
f 113/156/48 116/157/48 114/155/48
f 115/158/39 118/159/39 116/157/39
f 117/68/43 120/160/43 118/159/43
f 119/40/47 97/161/47 120/160/47
f 37/11/15 174/55/15 175/162/15
f 113/156/15 140/51/15 141/163/15
f 29/5/15 178/46/15 179/164/15
f 98/165/15 144/42/15 121/166/15
f 43/16/15 171/37/15 172/167/15
f 99/146/15 121/168/15 134/169/15
f 107/152/15 137/33/15 186/76/15
f 35/9/15 175/162/15 176/72/15
f 115/158/15 141/163/15 190/69/15
f 27/3/15 179/164/15 180/65/15
f 101/148/15 134/169/15 183/59/15
f 41/14/15 172/167/15 173/54/15
f 26/1/50 50/170/50 49/2/50
f 27/3/51 49/2/51 51/4/51
f 51/4/52 52/171/52 31/6/52
f 31/6/4 52/171/4 53/7/4
f 53/7/53 54/172/53 35/9/53
f 35/9/54 54/172/54 55/10/54
f 37/11/55 55/10/55 56/12/55
f 56/12/56 57/15/56 41/14/56
f 57/15/9 58/173/9 43/16/9
f 43/16/57 58/173/57 59/17/57
f 16/19/11 14/90/11 79/20/11
f 59/17/58 60/23/58 47/22/58
f 60/23/59 50/174/59 26/24/59
f 15/25/11 92/137/11 91/26/11
f 145/28/14 146/175/14 61/29/14
f 105/31/15 103/58/15 184/32/15
f 147/34/16 145/28/16 72/30/16
f 45/18/15 47/22/15 169/36/15
f 148/38/17 147/34/17 71/35/17
f 119/40/15 117/68/15 191/41/15
f 149/43/18 148/38/18 70/39/18
f 31/6/15 33/8/15 177/45/15
f 150/47/19 149/43/19 69/44/19
f 111/49/15 109/75/15 187/50/15
f 151/52/20 150/47/20 68/48/20
f 39/13/15 41/14/15 173/54/15
f 152/56/21 151/52/21 67/53/21
f 103/58/15 101/148/15 183/59/15
f 153/60/22 152/56/22 66/57/22
f 47/22/15 26/24/15 170/62/15
f 154/63/23 153/60/23 65/61/23
f 26/1/15 27/3/15 180/65/15
f 63/67/24 155/176/24 154/63/24
f 117/68/15 115/158/15 190/69/15
f 156/70/25 155/176/25 63/67/25
f 33/8/15 35/9/15 176/72/15
f 146/73/26 156/70/26 62/71/26
f 109/75/15 107/152/15 186/76/15
f 2/77/60 4/80/60 49/78/60
f 4/80/61 6/82/61 51/81/61
f 6/82/62 8/85/62 52/83/62
f 10/84/30 53/87/30 52/83/30
f 12/86/63 54/89/63 53/87/63
f 12/86/64 14/90/64 55/88/64
f 16/19/65 56/92/65 55/88/65
f 18/91/66 57/94/66 56/92/66
f 20/93/30 58/96/30 57/94/30
f 22/95/67 59/98/67 58/96/67
f 24/97/68 60/99/68 59/98/68
f 2/77/69 50/79/69 60/99/69
f 1/100/38 61/121/38 62/101/38
f 3/102/38 62/101/38 63/103/38
f 5/104/38 63/103/38 64/105/38
f 9/107/38 7/106/38 64/105/38
f 11/109/38 9/107/38 65/108/38
f 11/109/38 66/110/38 67/111/38
f 13/27/38 67/111/38 68/112/38
f 15/25/38 68/112/38 69/113/38
f 19/115/38 17/114/38 69/113/38
f 19/115/38 70/116/38 71/117/38
f 21/118/38 71/117/38 72/119/38
f 23/120/38 72/119/38 61/121/38
f 74/122/30 84/126/30 83/123/30
f 8/85/39 76/131/39 77/125/39
f 22/95/40 83/123/40 84/126/40
f 4/80/41 2/77/41 74/122/41
f 16/19/42 80/21/42 81/127/42
f 10/84/43 77/125/43 78/128/43
f 24/97/44 84/126/44 74/122/44
f 6/82/45 4/80/45 73/124/45
f 18/91/46 81/127/46 82/130/46
f 14/90/47 12/86/47 78/128/47
f 6/82/48 75/129/48 76/131/48
f 22/95/49 20/93/49 82/130/49
f 86/132/38 95/136/38 96/133/38
f 9/107/39 89/138/39 88/135/39
f 23/120/40 96/133/40 95/136/40
f 3/102/41 86/132/41 85/134/41
f 17/114/42 93/139/42 92/137/42
f 11/109/43 90/140/43 89/138/43
f 1/100/44 85/134/44 96/133/44
f 5/104/45 87/141/45 86/132/45
f 19/115/46 94/142/46 93/139/46
f 13/27/47 91/26/47 90/140/47
f 7/106/48 88/135/48 87/141/48
f 21/118/49 95/136/49 94/142/49
f 73/124/30 83/123/30 82/130/30
f 75/129/30 82/130/30 81/127/30
f 76/131/30 81/127/30 80/21/30
f 78/128/30 77/125/30 80/21/30
f 86/132/38 87/141/38 94/142/38
f 88/135/38 93/139/38 94/142/38
f 89/138/38 92/137/38 93/139/38
f 90/140/38 91/26/38 92/137/38
f 98/143/11 99/146/11 100/144/11
f 99/146/42 101/148/42 102/147/42
f 101/148/46 103/58/46 104/149/46
f 103/58/49 105/31/49 106/150/49
f 105/31/40 107/152/40 108/151/40
f 107/152/44 109/75/44 110/153/44
f 109/75/41 111/49/41 112/154/41
f 111/49/45 113/156/45 114/155/45
f 113/156/48 115/158/48 116/157/48
f 115/158/39 117/68/39 118/159/39
f 117/68/43 119/40/43 120/160/43
f 119/40/47 98/165/47 97/161/47
f 37/11/15 39/13/15 174/55/15
f 113/156/15 111/49/15 140/51/15
f 29/5/15 31/6/15 178/46/15
f 98/165/15 119/40/15 144/42/15
f 43/16/15 45/18/15 171/37/15
f 99/146/15 98/143/15 121/168/15
f 107/152/15 105/31/15 137/33/15
f 35/9/15 37/11/15 175/162/15
f 115/158/15 113/156/15 141/163/15
f 27/3/15 29/5/15 179/164/15
f 101/148/15 99/146/15 134/169/15
f 41/14/15 43/16/15 172/167/15
f 157/177/11 28/178/11 25/179/11
f 158/180/42 30/181/42 28/178/42
f 159/182/46 32/183/46 30/181/46
f 160/184/49 34/185/49 32/183/49
f 161/186/40 36/187/40 34/185/40
f 162/188/44 38/189/44 36/187/44
f 163/190/41 40/191/41 38/189/41
f 164/192/45 42/193/45 40/191/45
f 165/194/48 44/195/48 42/193/48
f 166/196/39 46/197/39 44/195/39
f 167/198/43 48/199/43 46/197/43
f 168/200/47 25/201/47 48/199/47
f 123/202/47 181/203/47 192/204/47
f 124/205/43 192/204/43 143/206/43
f 125/207/39 143/206/39 142/208/39
f 126/209/48 142/208/48 189/210/48
f 127/211/45 189/210/45 188/212/45
f 128/213/41 188/212/41 139/214/41
f 129/215/44 139/214/44 138/216/44
f 130/217/40 138/216/40 185/218/40
f 131/219/49 185/218/49 136/220/49
f 132/221/46 136/220/46 135/222/46
f 133/223/42 135/222/42 182/224/42
f 122/225/11 182/224/11 181/226/11
f 25/201/38 145/28/38 48/199/38
f 48/199/38 147/34/38 46/197/38
f 44/195/38 147/34/38 148/38/38
f 44/195/38 149/43/38 42/193/38
f 42/193/38 150/47/38 40/191/38
f 40/191/38 151/52/38 38/189/38
f 38/189/38 152/56/38 36/187/38
f 36/187/38 153/60/38 34/185/38
f 34/185/38 154/63/38 32/183/38
f 32/183/38 155/176/38 30/181/38
f 28/178/38 155/176/38 156/70/38
f 28/178/38 146/73/38 25/179/38
f 158/180/30 97/145/30 100/144/30
f 158/180/30 102/147/30 159/182/30
f 159/182/30 104/149/30 160/184/30
f 160/184/30 106/150/30 161/186/30
f 161/186/30 108/151/30 162/188/30
f 163/190/30 108/151/30 110/153/30
f 163/190/30 112/154/30 164/192/30
f 165/194/30 112/154/30 114/155/30
f 166/196/30 114/155/30 116/157/30
f 166/196/30 118/159/30 167/198/30
f 167/198/30 120/160/30 168/200/30
f 157/227/30 120/160/30 97/161/30
f 122/228/30 169/36/30 170/62/30
f 124/205/30 169/36/30 123/202/30
f 125/207/30 171/37/30 124/205/30
f 125/207/30 173/54/30 172/167/30
f 127/211/30 173/54/30 126/209/30
f 128/213/30 174/55/30 127/211/30
f 128/213/30 176/72/30 175/162/30
f 130/217/30 176/72/30 129/215/30
f 131/219/30 177/45/30 130/217/30
f 132/221/30 178/46/30 131/219/30
f 133/223/30 179/164/30 132/221/30
f 133/223/30 170/66/30 180/65/30
f 182/224/38 121/168/38 181/226/38
f 182/224/38 183/59/38 134/169/38
f 136/220/38 183/59/38 135/222/38
f 185/218/38 184/32/38 136/220/38
f 138/216/38 137/33/38 185/218/38
f 139/214/38 186/76/38 138/216/38
f 188/212/38 187/50/38 139/214/38
f 189/210/38 140/51/38 188/212/38
f 142/208/38 141/163/38 189/210/38
f 142/208/38 191/41/38 190/69/38
f 192/204/38 191/41/38 143/206/38
f 181/203/38 144/42/38 192/204/38
f 157/177/11 158/180/11 28/178/11
f 158/180/42 159/182/42 30/181/42
f 159/182/46 160/184/46 32/183/46
f 160/184/49 161/186/49 34/185/49
f 161/186/40 162/188/40 36/187/40
f 162/188/44 163/190/44 38/189/44
f 163/190/41 164/192/41 40/191/41
f 164/192/45 165/194/45 42/193/45
f 165/194/48 166/196/48 44/195/48
f 166/196/39 167/198/39 46/197/39
f 167/198/43 168/200/43 48/199/43
f 168/200/47 157/227/47 25/201/47
f 123/202/47 122/228/47 181/203/47
f 124/205/43 123/202/43 192/204/43
f 125/207/39 124/205/39 143/206/39
f 126/209/48 125/207/48 142/208/48
f 127/211/45 126/209/45 189/210/45
f 128/213/41 127/211/41 188/212/41
f 129/215/44 128/213/44 139/214/44
f 130/217/40 129/215/40 138/216/40
f 131/219/49 130/217/49 185/218/49
f 132/221/46 131/219/46 136/220/46
f 133/223/42 132/221/42 135/222/42
f 122/225/11 133/223/11 182/224/11
f 25/201/38 146/175/38 145/28/38
f 48/199/38 145/28/38 147/34/38
f 44/195/38 46/197/38 147/34/38
f 44/195/38 148/38/38 149/43/38
f 42/193/38 149/43/38 150/47/38
f 40/191/38 150/47/38 151/52/38
f 38/189/38 151/52/38 152/56/38
f 36/187/38 152/56/38 153/60/38
f 34/185/38 153/60/38 154/63/38
f 32/183/38 154/63/38 155/176/38
f 28/178/38 30/181/38 155/176/38
f 28/178/38 156/70/38 146/73/38
f 158/180/30 157/177/30 97/145/30
f 158/180/30 100/144/30 102/147/30
f 159/182/30 102/147/30 104/149/30
f 160/184/30 104/149/30 106/150/30
f 161/186/30 106/150/30 108/151/30
f 163/190/30 162/188/30 108/151/30
f 163/190/30 110/153/30 112/154/30
f 165/194/30 164/192/30 112/154/30
f 166/196/30 165/194/30 114/155/30
f 166/196/30 116/157/30 118/159/30
f 167/198/30 118/159/30 120/160/30
f 157/227/30 168/200/30 120/160/30
f 122/228/30 123/202/30 169/36/30
f 124/205/30 171/37/30 169/36/30
f 125/207/30 172/167/30 171/37/30
f 125/207/30 126/209/30 173/54/30
f 127/211/30 174/55/30 173/54/30
f 128/213/30 175/162/30 174/55/30
f 128/213/30 129/215/30 176/72/30
f 130/217/30 177/45/30 176/72/30
f 131/219/30 178/46/30 177/45/30
f 132/221/30 179/164/30 178/46/30
f 133/223/30 180/65/30 179/164/30
f 133/223/30 122/225/30 170/66/30
f 182/224/38 134/169/38 121/168/38
f 182/224/38 135/222/38 183/59/38
f 136/220/38 184/32/38 183/59/38
f 185/218/38 137/33/38 184/32/38
f 138/216/38 186/76/38 137/33/38
f 139/214/38 187/50/38 186/76/38
f 188/212/38 140/51/38 187/50/38
f 189/210/38 141/163/38 140/51/38
f 142/208/38 190/69/38 141/163/38
f 142/208/38 143/206/38 191/41/38
f 192/204/38 144/42/38 191/41/38
f 181/203/38 121/166/38 144/42/38
