# Blender v2.82 (sub 7) OBJ File: 'Shelf.blend'
# www.blender.org
o shelf_with_bottles_Plane.007
v 2.650831 0.607080 0.500564
v 2.650831 0.608139 0.486316
v 2.650831 0.007615 -0.626594
v 2.650831 0.082883 -0.671993
v 2.850831 0.607080 0.500564
v 2.850831 0.608139 0.486316
v 2.850831 0.007615 -0.626594
v 2.850831 0.082883 -0.671993
v 2.650831 0.518863 0.403935
v 2.650831 0.607963 0.358536
v 2.850831 0.518863 0.403935
v 2.850831 0.607963 0.358536
v 2.650831 0.119459 -0.600208
v 2.850831 0.007021 -0.554809
v 2.650831 0.007021 -0.554809
v 2.850831 0.119459 -0.600208
v 2.650831 0.607186 0.500000
v 2.650831 0.707186 0.500000
v 2.650831 0.607186 -0.700000
v 2.650831 0.707186 -0.700000
v 2.850831 0.607186 0.500000
v 2.850831 0.707186 0.500000
v 2.850831 0.607186 -0.700000
v 2.850831 0.707186 -0.700000
v 2.650831 0.007186 -0.700000
v 2.650831 0.007186 -0.600000
v 2.650831 0.607186 -0.700000
v 2.650831 0.607186 -0.600000
v 2.850831 0.007186 -0.700000
v 2.850831 0.007186 -0.600000
v 2.850831 0.607186 -0.700000
v 2.850831 0.607186 -0.600000
v -3.000000 0.707237 0.700000
v -3.000000 0.907236 0.700000
v -3.000000 0.707236 -0.700000
v -3.000000 0.907236 -0.700000
v 3.000000 0.707237 0.700000
v 3.000000 0.907236 0.700000
v 3.000000 0.707236 -0.700000
v 3.000000 0.907236 -0.700000
v -2.850831 0.607080 0.500564
v -2.850831 0.608139 0.486316
v -2.850831 0.007615 -0.626594
v -2.850831 0.082883 -0.671993
v -2.650830 0.607080 0.500564
v -2.650830 0.608139 0.486316
v -2.650830 0.007615 -0.626594
v -2.650830 0.082883 -0.671993
v -2.850831 0.518863 0.403935
v -2.850831 0.607963 0.358536
v -2.650830 0.518863 0.403935
v -2.650830 0.607963 0.358536
v -2.850831 0.119459 -0.600208
v -2.650830 0.007021 -0.554809
v -2.850831 0.007021 -0.554809
v -2.650830 0.119459 -0.600208
v -2.850831 0.607186 0.500000
v -2.850831 0.707186 0.500000
v -2.850831 0.607186 -0.700000
v -2.850831 0.707186 -0.700000
v -2.650830 0.607186 0.500000
v -2.650830 0.707186 0.500000
v -2.650830 0.607186 -0.700000
v -2.650830 0.707186 -0.700000
v -2.850831 0.007186 -0.700000
v -2.850831 0.007186 -0.600000
v -2.850831 0.607186 -0.700000
v -2.850831 0.607186 -0.600000
v -2.650830 0.007186 -0.700000
v -2.650830 0.007186 -0.600000
v -2.650830 0.607186 -0.700000
v -2.650830 0.607186 -0.600000
vt 0.977381 0.560347
vt 0.995137 0.528900
vt 0.995137 0.560347
vt 0.783315 0.402472
vt 0.826998 0.404671
vt 0.783315 0.404671
vt 0.826998 0.382553
vt 0.783315 0.382553
vt 0.826998 0.211048
vt 0.783315 0.222995
vt 0.783315 0.211048
vt 0.873302 0.402759
vt 0.829619 0.589791
vt 0.829619 0.402759
vt 0.967741 0.379513
vt 0.989392 0.348066
vt 0.989392 0.379513
vt 0.737011 0.226730
vt 0.780694 0.006604
vt 0.780694 0.226730
vt 0.691231 0.971698
vt 0.734405 0.028302
vt 0.734405 0.971698
vt 0.780694 0.239937
vt 0.737011 0.460063
vt 0.737011 0.239937
vt 0.688625 0.028302
vt 0.644942 0.971698
vt 0.644942 0.028302
vt 0.009123 0.028302
vt 0.313212 0.971698
vt 0.009123 0.971698
vt 0.634538 0.971698
vt 0.331428 0.028302
vt 0.634538 0.028302
vt 0.967741 0.346179
vt 0.989392 0.314733
vt 0.989392 0.346179
vt 0.977381 0.528900
vt 0.826998 0.402472
vt 0.826998 0.222995
vt 0.873302 0.589791
vt 0.967741 0.348066
vt 0.737011 0.006604
vt 0.691231 0.028302
vt 0.780694 0.460063
vt 0.688625 0.971698
vt 0.313212 0.028302
vt 0.331428 0.971698
vt 0.967741 0.314733
vt 0.762875 0.661738
vt 0.743726 0.673418
vt 0.736492 0.663404
vt 0.926249 0.187904
vt 0.935454 0.205818
vt 0.933835 0.207739
vt 0.875923 0.219462
vt 0.919605 0.202896
vt 0.919606 0.219462
vt 0.875923 0.377825
vt 0.919606 0.377825
vt 0.948091 0.018718
vt 0.921708 0.017052
vt 0.750239 0.474638
vt 0.741034 0.492552
vt 0.748620 0.472717
vt 0.928941 0.007038
vt 0.875923 0.389039
vt 0.919606 0.389039
vt 0.949537 0.194340
vt 0.971379 0.005660
vt 0.971379 0.194340
vt 0.759231 0.712846
vt 0.780818 0.681399
vt 0.780818 0.712846
vt 0.994531 0.005660
vt 0.972689 0.194340
vt 0.972689 0.005660
vt 0.943413 0.348066
vt 0.921571 0.379513
vt 0.921571 0.348066
vt 0.829619 0.193265
vt 0.873302 0.005629
vt 0.873302 0.193265
vt 0.977503 0.491793
vt 0.999345 0.397454
vt 0.999345 0.491793
vt 0.827653 0.612204
vt 0.805812 0.706544
vt 0.805812 0.612204
vt 0.966440 0.348066
vt 0.944720 0.379513
vt 0.944720 0.348066
vt 0.875923 0.704452
vt 0.919605 0.611210
vt 0.919606 0.704452
vt 0.922227 0.310959
vt 0.965909 0.216620
vt 0.965909 0.310959
vt 0.901787 0.589695
vt 0.882637 0.601375
vt 0.875404 0.591361
vt 0.977381 0.527014
vt 0.995137 0.495567
vt 0.995137 0.527014
vt 0.907911 0.582528
vt 0.917116 0.600442
vt 0.915497 0.602362
vt 0.826998 0.008007
vt 0.783315 0.005809
vt 0.826998 0.005809
vt 0.875923 0.022150
vt 0.919606 0.005584
vt 0.919606 0.022150
vt 0.783315 0.027927
vt 0.826998 0.027927
vt 0.783315 0.187484
vt 0.826998 0.187484
vt 0.875923 0.180513
vt 0.919606 0.180513
vt 0.929753 0.413342
vt 0.903370 0.411676
vt 0.889151 0.402595
vt 0.879945 0.420509
vt 0.887532 0.400674
vt 0.910603 0.401662
vt 0.875923 0.191728
vt 0.919606 0.191728
vt 0.783315 0.199431
vt 0.826998 0.199431
vt 0.953041 0.588963
vt 0.931200 0.400284
vt 0.953041 0.400284
vt 0.736348 0.712846
vt 0.757936 0.681399
vt 0.757936 0.712846
vt 0.954351 0.588963
vt 0.976193 0.400284
vt 0.976193 0.588963
vt 0.921571 0.346179
vt 0.943413 0.314733
vt 0.943413 0.346179
vt 0.783315 0.603745
vt 0.826998 0.416109
vt 0.826998 0.603745
vt 0.873302 0.204505
vt 0.829619 0.391537
vt 0.829619 0.204505
vt 0.782660 0.706544
vt 0.804501 0.612204
vt 0.804501 0.706544
vt 0.989717 0.216620
vt 0.967875 0.310959
vt 0.967875 0.216620
vt 0.966440 0.314733
vt 0.944720 0.346179
vt 0.944720 0.314733
vt 0.931855 0.690663
vt 0.975538 0.597421
vt 0.975538 0.690663
vt 0.829619 0.692571
vt 0.873302 0.598232
vt 0.873302 0.692571
vt 0.762875 0.674405
vt 0.948090 0.187904
vt 0.875923 0.202896
vt 0.762875 0.492552
vt 0.948091 0.006051
vt 0.949537 0.005660
vt 0.759231 0.681399
vt 0.994531 0.194340
vt 0.943413 0.379513
vt 0.829619 0.005629
vt 0.977503 0.397454
vt 0.827653 0.706544
vt 0.966440 0.379513
vt 0.875923 0.611210
vt 0.922227 0.216620
vt 0.901787 0.602362
vt 0.977381 0.495567
vt 0.929752 0.582528
vt 0.783315 0.008007
vt 0.875923 0.005584
vt 0.901787 0.420509
vt 0.929753 0.400674
vt 0.931200 0.588963
vt 0.736348 0.681399
vt 0.954351 0.400284
vt 0.921571 0.314733
vt 0.783315 0.416109
vt 0.873302 0.391537
vt 0.782660 0.612204
vt 0.989717 0.310959
vt 0.966440 0.346179
vt 0.931855 0.597421
vt 0.829619 0.598232
vn 0.0000 -0.5165 -0.8563
vn 0.0000 0.9973 0.0741
vn 0.0000 1.0000 -0.0014
vn 0.0000 0.8910 -0.4540
vn 0.0000 1.0000 -0.0000
vn -1.0000 0.0000 0.0000
vn 0.0000 0.0000 -1.0000
vn 1.0000 0.0000 0.0000
vn 0.0000 -0.0000 1.0000
vn 0.0000 -1.0000 0.0000
vn 0.0000 -0.7385 0.6742
vn 0.0000 -0.8822 0.4710
vn 0.0000 -1.0000 -0.0083
vn -0.9068 0.4041 -0.1199
vn -0.9906 0.0909 0.1020
vn -0.9083 0.4182 -0.0091
vn -0.9908 0.1253 -0.0522
vn -0.9234 0.3837 -0.0108
vn -0.9923 0.1232 -0.0090
vn -0.9913 0.1316 -0.0090
vn -0.9916 0.1291 -0.0091
vn -0.9906 0.1363 -0.0099
vn -0.9957 -0.0683 -0.0631
vn -0.2384 0.9697 -0.0532
vn -0.9908 0.1230 -0.0571
vn -0.9068 0.4214 -0.0061
vn -0.9887 0.1360 -0.0631
vn -0.9906 0.1355 -0.0178
vn -0.9908 0.0095 -0.1353
vn -0.9221 0.3832 -0.0531
vn -0.9234 0.3799 0.0546
vn -0.4600 -0.8879 -0.0090
vn -0.9234 0.3838 -0.0083
vn -0.7804 0.6252 -0.0091
vn -0.8297 0.5547 -0.0631
vn -0.9068 0.4175 -0.0579
vn -0.9500 0.3077 -0.0532
s off
f 4/1/1 7/2/1 3/3/1
f 6/4/2 1/5/2 5/6/2
f 10/7/3 6/4/3 12/8/3
f 4/9/4 16/10/4 8/11/4
f 20/12/5 22/13/5 24/14/5
f 28/15/5 31/16/5 27/17/5
f 34/18/6 35/19/6 33/20/6
f 36/21/7 39/22/7 35/23/7
f 40/24/8 37/25/8 39/26/8
f 38/27/9 33/28/9 37/29/9
f 39/30/10 33/31/10 35/32/10
f 36/33/5 38/34/5 40/35/5
f 68/36/5 71/37/5 67/38/5
f 4/1/1 8/39/1 7/2/1
f 6/4/2 2/40/2 1/5/2
f 10/7/3 2/40/3 6/4/3
f 4/9/4 13/41/4 16/10/4
f 20/12/5 18/42/5 22/13/5
f 28/15/5 32/43/5 31/16/5
f 34/18/6 36/44/6 35/19/6
f 36/21/7 40/45/7 39/22/7
f 40/24/8 38/46/8 37/25/8
f 38/27/9 34/47/9 33/28/9
f 39/30/10 37/48/10 33/31/10
f 36/33/5 34/49/5 38/34/5
f 68/36/5 72/50/5 71/37/5
f 13/51/6 3/52/6 15/53/6
f 11/54/8 6/55/8 5/56/8
f 11/57/11 1/58/11 9/59/11
f 13/41/4 12/8/4 16/10/4
f 14/60/12 9/59/12 15/61/12
f 16/62/8 11/54/8 14/63/8
f 2/64/6 9/65/6 1/66/6
f 7/67/8 16/62/8 14/63/8
f 7/68/13 15/61/13 3/69/13
f 9/65/6 13/51/6 15/53/6
f 18/70/6 19/71/6 17/72/6
f 20/73/7 23/74/7 19/75/7
f 24/76/8 21/77/8 23/78/8
f 22/79/9 17/80/9 21/81/9
f 23/82/10 17/83/10 19/84/10
f 26/85/14 27/86/15 25/87/16
f 32/88/17 29/89/18 31/90/19
f 30/91/10 25/92/10 29/93/10
f 31/94/20 25/95/21 27/96/22
f 28/97/23 30/98/24 32/99/25
f 53/100/6 43/101/6 55/102/6
f 44/103/1 47/104/1 43/105/1
f 51/106/8 46/107/8 45/108/8
f 46/109/2 41/110/2 45/111/2
f 51/112/11 41/113/11 49/114/11
f 50/115/3 46/109/3 52/116/3
f 53/117/4 52/116/4 56/118/4
f 54/119/12 49/114/12 55/120/12
f 56/121/8 51/106/8 54/122/8
f 42/123/6 49/124/6 41/125/6
f 47/126/8 56/121/8 54/122/8
f 47/127/13 55/120/13 43/128/13
f 44/129/4 56/118/4 48/130/4
f 49/124/6 53/100/6 55/102/6
f 57/131/6 60/132/6 59/133/6
f 60/134/7 63/135/7 59/136/7
f 64/137/8 61/138/8 63/139/8
f 62/140/9 57/141/9 61/142/9
f 63/143/10 57/144/10 59/145/10
f 60/146/5 62/147/5 64/148/5
f 66/149/6 67/150/6 65/151/6
f 72/152/8 69/153/8 71/154/8
f 70/155/10 65/156/10 69/157/10
f 71/158/7 65/159/7 67/160/7
f 68/161/9 70/162/9 72/163/9
f 13/51/6 4/164/6 3/52/6
f 11/54/8 12/165/8 6/55/8
f 11/57/11 5/166/11 1/58/11
f 13/41/4 10/7/4 12/8/4
f 14/60/12 11/57/12 9/59/12
f 16/62/8 12/165/8 11/54/8
f 2/64/6 10/167/6 9/65/6
f 7/67/8 8/168/8 16/62/8
f 7/68/13 14/60/13 15/61/13
f 9/65/6 10/167/6 13/51/6
f 18/70/6 20/169/6 19/71/6
f 20/73/7 24/170/7 23/74/7
f 24/76/8 22/171/8 21/77/8
f 22/79/9 18/172/9 17/80/9
f 23/82/10 21/173/10 17/83/10
f 26/85/26 28/174/27 27/86/28
f 32/88/29 30/175/30 29/89/31
f 30/91/10 26/176/10 25/92/10
f 31/94/32 29/177/33 25/95/34
f 28/97/35 26/178/36 30/98/37
f 53/100/6 44/179/6 43/101/6
f 44/103/1 48/180/1 47/104/1
f 51/106/8 52/181/8 46/107/8
f 46/109/2 42/182/2 41/110/2
f 51/112/11 45/183/11 41/113/11
f 50/115/3 42/182/3 46/109/3
f 53/117/4 50/115/4 52/116/4
f 54/119/12 51/112/12 49/114/12
f 56/121/8 52/181/8 51/106/8
f 42/123/6 50/184/6 49/124/6
f 47/126/8 48/185/8 56/121/8
f 47/127/13 54/119/13 55/120/13
f 44/129/4 53/117/4 56/118/4
f 49/124/6 50/184/6 53/100/6
f 57/131/6 58/186/6 60/132/6
f 60/134/7 64/187/7 63/135/7
f 64/137/8 62/188/8 61/138/8
f 62/140/9 58/189/9 57/141/9
f 63/143/10 61/190/10 57/144/10
f 60/146/5 58/191/5 62/147/5
f 66/149/6 68/192/6 67/150/6
f 72/152/8 70/193/8 69/153/8
f 70/155/10 66/194/10 65/156/10
f 71/158/7 69/195/7 65/159/7
f 68/161/9 66/196/9 70/162/9
