# Blender v2.82 (sub 7) OBJ File: 'spike.blend'
# www.blender.org
o Cylinder
v 0.000000 -0.303944 -1.500000
v 0.000000 49.696056 -0.000000
v 0.292636 -0.303944 -1.471178
v 0.574025 -0.303944 -1.385819
v 0.833355 -0.303944 -1.247204
v 1.060660 -0.303944 -1.060660
v 1.247205 -0.303944 -0.833355
v 1.385819 -0.303944 -0.574025
v 1.471178 -0.303944 -0.292636
v 1.500000 -0.303944 -0.000000
v 1.471178 -0.303944 0.292635
v 1.385819 -0.303944 0.574025
v 1.247205 -0.303944 0.833355
v 1.060660 -0.303944 1.060660
v 0.833355 -0.303944 1.247205
v 0.574025 -0.303944 1.385819
v 0.292635 -0.303944 1.471178
v -0.000000 -0.303944 1.500000
v -0.292636 -0.303944 1.471178
v -0.574026 -0.303944 1.385819
v -0.833356 -0.303944 1.247204
v -1.060661 -0.303944 1.060660
v -1.247205 -0.303944 0.833354
v -1.385820 -0.303944 0.574024
v -1.471178 -0.303944 0.292634
v -1.500000 -0.303944 -0.000001
v -1.471178 -0.303944 -0.292637
v -1.385819 -0.303944 -0.574027
v -1.247203 -0.303944 -0.833357
v -1.060659 -0.303944 -1.060662
v -0.833354 -0.303944 -1.247205
v -0.574023 -0.303944 -1.385820
v -0.292633 -0.303944 -1.471178
v 0.000000 45.450466 -1.500000
v 0.292636 45.450466 -1.471178
v 0.574025 45.450466 -1.385819
v 0.833355 45.450466 -1.247204
v 1.060660 45.450466 -1.060660
v 1.247205 45.450466 -0.833355
v 1.385819 45.450466 -0.574025
v 1.471178 45.450466 -0.292636
v 1.500000 45.450466 -0.000000
v 1.471178 45.450466 0.292635
v 1.385819 45.450466 0.574025
v 1.247205 45.450466 0.833355
v 1.060660 45.450466 1.060660
v 0.833355 45.450466 1.247205
v 0.574025 45.450466 1.385819
v 0.292635 45.450466 1.471178
v -0.000000 45.450466 1.500000
v -0.292636 45.450466 1.471178
v -0.574026 45.450466 1.385819
v -0.833356 45.450466 1.247204
v -1.060661 45.450466 1.060660
v -1.247205 45.450466 0.833354
v -1.385820 45.450466 0.574024
v -1.471178 45.450466 0.292634
v -1.500000 45.450466 -0.000001
v -1.471178 45.450466 -0.292637
v -1.385819 45.450466 -0.574027
v -1.247203 45.450466 -0.833357
v -1.060659 45.450466 -1.060662
v -0.833354 45.450466 -1.247205
v -0.574023 45.450466 -1.385820
v -0.292633 45.450466 -1.471178
vt 0.033960 0.624761
vt 0.207107 0.543764
vt 0.055342 0.652767
vt 0.082557 0.676585
vt 0.114558 0.695298
vt 0.150115 0.708188
vt 0.187863 0.714759
vt 0.226350 0.714759
vt 0.264098 0.708188
vt 0.299656 0.695298
vt 0.331657 0.676585
vt 0.358871 0.652767
vt 0.380254 0.624761
vt 0.394982 0.593642
vt 0.402490 0.560606
vt 0.402490 0.526923
vt 0.394982 0.493887
vt 0.380254 0.462768
vt 0.358871 0.434761
vt 0.331657 0.410944
vt 0.299656 0.392230
vt 0.264098 0.379340
vt 0.226350 0.372769
vt 0.187863 0.372769
vt 0.150115 0.379341
vt 0.114558 0.392231
vt 0.082557 0.410944
vt 0.055342 0.434761
vt 0.033960 0.462768
vt 0.019231 0.493887
vt 0.011723 0.526923
vt 0.011723 0.560606
vt 0.019232 0.593642
vt 0.150115 0.016831
vt 0.394982 0.131377
vt 0.264098 0.345679
vt 0.632075 0.009434
vt 0.667633 0.323899
vt 0.632075 0.323899
vt 0.594327 0.009434
vt 0.594328 0.323899
vt 0.555840 0.009434
vt 0.555840 0.323899
vt 0.518093 0.009434
vt 0.518093 0.323899
vt 0.482535 0.009434
vt 0.482535 0.323899
vt 0.450534 0.009434
vt 0.450534 0.323899
vt 0.423319 0.009434
vt 0.423319 0.323899
vt 0.454504 0.657233
vt 0.422503 0.342767
vt 0.454504 0.342767
vt 0.490062 0.657233
vt 0.490062 0.342767
vt 0.527809 0.657233
vt 0.527809 0.342767
vt 0.566297 0.657233
vt 0.566297 0.342767
vt 0.604044 0.657233
vt 0.604044 0.342767
vt 0.639602 0.657233
vt 0.639602 0.342767
vt 0.671603 0.657233
vt 0.671603 0.342767
vt 0.698817 0.657233
vt 0.698817 0.342767
vt 0.638785 0.676101
vt 0.670786 0.990566
vt 0.638785 0.990566
vt 0.603228 0.676101
vt 0.603228 0.990566
vt 0.565480 0.676101
vt 0.565480 0.990566
vt 0.526993 0.676101
vt 0.526993 0.990566
vt 0.489245 0.676101
vt 0.489245 0.990566
vt 0.453688 0.676101
vt 0.453688 0.990566
vt 0.421687 0.676101
vt 0.421687 0.990566
vt 0.742611 0.657232
vt 0.715396 0.342767
vt 0.742611 0.342767
vt 0.774612 0.657232
vt 0.774612 0.342767
vt 0.810169 0.657232
vt 0.810169 0.342767
vt 0.847917 0.657232
vt 0.847917 0.342767
vt 0.886404 0.657232
vt 0.886404 0.342767
vt 0.924152 0.657233
vt 0.924152 0.342767
vt 0.959710 0.657232
vt 0.959710 0.342767
vt 0.991711 0.657233
vt 0.991711 0.342767
vt 0.699633 0.009434
vt 0.726848 0.323899
vt 0.699633 0.323899
vt 0.667632 0.009434
vt 0.019231 0.231132
vt 0.011723 0.198096
vt 0.011723 0.164413
vt 0.019231 0.131377
vt 0.033960 0.100258
vt 0.055342 0.072252
vt 0.082557 0.048434
vt 0.114558 0.029721
vt 0.187863 0.010260
vt 0.226350 0.010260
vt 0.264098 0.016831
vt 0.299656 0.029721
vt 0.331657 0.048434
vt 0.358871 0.072252
vt 0.380254 0.100258
vt 0.402490 0.164413
vt 0.402490 0.198096
vt 0.394982 0.231132
vt 0.380254 0.262251
vt 0.358871 0.290258
vt 0.331657 0.314075
vt 0.299656 0.332789
vt 0.226350 0.352250
vt 0.187863 0.352250
vt 0.150115 0.345679
vt 0.114558 0.332789
vt 0.082557 0.314075
vt 0.055342 0.290258
vt 0.033960 0.262251
vt 0.422503 0.657233
vt 0.670786 0.676101
vt 0.715396 0.657232
vt 0.726848 0.009434
vn 0.0925 0.3317 -0.9388
vn 0.2738 0.3317 -0.9028
vn 0.4447 0.3317 -0.8320
vn 0.5985 0.3317 -0.7292
vn 0.7292 0.3317 -0.5985
vn 0.8320 0.3317 -0.4447
vn 0.9028 0.3317 -0.2738
vn 0.9388 0.3317 -0.0925
vn 0.9388 0.3317 0.0925
vn 0.9028 0.3317 0.2738
vn 0.8320 0.3317 0.4447
vn 0.7292 0.3317 0.5985
vn 0.5985 0.3317 0.7292
vn 0.4447 0.3317 0.8320
vn 0.2738 0.3317 0.9028
vn 0.0925 0.3317 0.9388
vn -0.0925 0.3317 0.9388
vn -0.2739 0.3317 0.9028
vn -0.4447 0.3317 0.8320
vn -0.5985 0.3317 0.7292
vn -0.7292 0.3317 0.5985
vn -0.8320 0.3317 0.4447
vn -0.9028 0.3317 0.2738
vn -0.9388 0.3317 0.0925
vn -0.9388 0.3317 -0.0925
vn -0.9028 0.3317 -0.2738
vn -0.8320 0.3317 -0.4447
vn -0.7292 0.3317 -0.5985
vn -0.5985 0.3317 -0.7292
vn -0.4447 0.3317 -0.8320
vn -0.2738 0.3317 -0.9028
vn -0.0925 0.3317 -0.9388
vn 0.0000 -1.0000 0.0000
vn -0.0980 0.0000 -0.9952
vn -0.2903 0.0000 -0.9569
vn -0.4714 0.0000 -0.8819
vn -0.6344 0.0000 -0.7730
vn -0.7730 0.0000 -0.6344
vn -0.8819 0.0000 -0.4714
vn -0.9569 0.0000 -0.2903
vn -0.9952 0.0000 -0.0980
vn -0.9952 0.0000 0.0980
vn -0.9569 0.0000 0.2903
vn -0.8819 0.0000 0.4714
vn -0.7730 0.0000 0.6344
vn -0.6344 0.0000 0.7730
vn -0.4714 0.0000 0.8819
vn -0.2903 0.0000 0.9569
vn -0.0980 0.0000 0.9952
vn 0.0980 0.0000 0.9952
vn 0.2903 0.0000 0.9569
vn 0.4714 0.0000 0.8819
vn 0.6344 0.0000 0.7730
vn 0.7730 0.0000 0.6344
vn 0.8819 0.0000 0.4714
vn 0.9569 0.0000 0.2903
vn 0.9952 0.0000 0.0980
vn 0.9952 0.0000 -0.0980
vn 0.9569 0.0000 -0.2903
vn 0.8819 0.0000 -0.4714
vn 0.7730 0.0000 -0.6344
vn 0.6344 0.0000 -0.7730
vn 0.4714 0.0000 -0.8819
vn 0.2903 0.0000 -0.9569
vn 0.0980 0.0000 -0.9952
s off
f 34/1/1 2/2/1 35/3/1
f 35/3/2 2/2/2 36/4/2
f 36/4/3 2/2/3 37/5/3
f 37/5/4 2/2/4 38/6/4
f 38/6/5 2/2/5 39/7/5
f 39/7/6 2/2/6 40/8/6
f 40/8/7 2/2/7 41/9/7
f 41/9/8 2/2/8 42/10/8
f 42/10/9 2/2/9 43/11/9
f 43/11/10 2/2/10 44/12/10
f 44/12/11 2/2/11 45/13/11
f 45/13/12 2/2/12 46/14/12
f 46/14/13 2/2/13 47/15/13
f 47/15/14 2/2/14 48/16/14
f 48/16/15 2/2/15 49/17/15
f 49/17/16 2/2/16 50/18/16
f 50/18/17 2/2/17 51/19/17
f 51/19/18 2/2/18 52/20/18
f 52/20/19 2/2/19 53/21/19
f 53/21/20 2/2/20 54/22/20
f 54/22/21 2/2/21 55/23/21
f 55/23/22 2/2/22 56/24/22
f 56/24/23 2/2/23 57/25/23
f 57/25/24 2/2/24 58/26/24
f 58/26/25 2/2/25 59/27/25
f 59/27/26 2/2/26 60/28/26
f 60/28/27 2/2/27 61/29/27
f 61/29/28 2/2/28 62/30/28
f 62/30/29 2/2/29 63/31/29
f 63/31/30 2/2/30 64/32/30
f 64/32/31 2/2/31 65/33/31
f 65/33/32 2/2/32 34/1/32
f 9/34/33 17/35/33 25/36/33
f 65/37/34 1/38/34 33/39/34
f 64/40/35 33/39/35 32/41/35
f 63/42/36 32/41/36 31/43/36
f 62/44/37 31/43/37 30/45/37
f 61/46/38 30/45/38 29/47/38
f 60/48/39 29/47/39 28/49/39
f 59/50/40 28/49/40 27/51/40
f 58/52/41 27/53/41 26/54/41
f 57/55/42 26/54/42 25/56/42
f 56/57/43 25/56/43 24/58/43
f 55/59/44 24/58/44 23/60/44
f 54/61/45 23/60/45 22/62/45
f 53/63/46 22/62/46 21/64/46
f 52/65/47 21/64/47 20/66/47
f 51/67/48 20/66/48 19/68/48
f 50/69/49 19/70/49 18/71/49
f 49/72/50 18/71/50 17/73/50
f 48/74/51 17/73/51 16/75/51
f 47/76/52 16/75/52 15/77/52
f 46/78/53 15/77/53 14/79/53
f 45/80/54 14/79/54 13/81/54
f 44/82/55 13/81/55 12/83/55
f 43/84/56 12/85/56 11/86/56
f 42/87/57 11/86/57 10/88/57
f 41/89/58 10/88/58 9/90/58
f 40/91/59 9/90/59 8/92/59
f 39/93/60 8/92/60 7/94/60
f 38/95/61 7/94/61 6/96/61
f 37/97/62 6/96/62 5/98/62
f 36/99/63 5/98/63 4/100/63
f 35/101/64 4/102/64 3/103/64
f 34/104/65 3/103/65 1/38/65
f 33/105/33 1/106/33 3/107/33
f 3/107/33 4/108/33 5/109/33
f 5/109/33 6/110/33 7/111/33
f 7/111/33 8/112/33 5/109/33
f 8/112/33 9/34/33 5/109/33
f 9/34/33 10/113/33 11/114/33
f 11/114/33 12/115/33 9/34/33
f 12/115/33 13/116/33 9/34/33
f 13/116/33 14/117/33 17/35/33
f 14/117/33 15/118/33 17/35/33
f 15/118/33 16/119/33 17/35/33
f 17/35/33 18/120/33 19/121/33
f 19/121/33 20/122/33 21/123/33
f 21/123/33 22/124/33 23/125/33
f 23/125/33 24/126/33 25/36/33
f 25/36/33 26/127/33 27/128/33
f 27/128/33 28/129/33 29/130/33
f 29/130/33 30/131/33 33/105/33
f 30/131/33 31/132/33 33/105/33
f 31/132/33 32/133/33 33/105/33
f 33/105/33 3/107/33 5/109/33
f 17/35/33 19/121/33 25/36/33
f 19/121/33 21/123/33 25/36/33
f 21/123/33 23/125/33 25/36/33
f 25/36/33 27/128/33 33/105/33
f 27/128/33 29/130/33 33/105/33
f 33/105/33 5/109/33 9/34/33
f 9/34/33 13/116/33 17/35/33
f 33/105/33 9/34/33 25/36/33
f 65/37/34 34/104/34 1/38/34
f 64/40/35 65/37/35 33/39/35
f 63/42/36 64/40/36 32/41/36
f 62/44/37 63/42/37 31/43/37
f 61/46/38 62/44/38 30/45/38
f 60/48/39 61/46/39 29/47/39
f 59/50/40 60/48/40 28/49/40
f 58/52/41 59/134/41 27/53/41
f 57/55/42 58/52/42 26/54/42
f 56/57/43 57/55/43 25/56/43
f 55/59/44 56/57/44 24/58/44
f 54/61/45 55/59/45 23/60/45
f 53/63/46 54/61/46 22/62/46
f 52/65/47 53/63/47 21/64/47
f 51/67/48 52/65/48 20/66/48
f 50/69/49 51/135/49 19/70/49
f 49/72/50 50/69/50 18/71/50
f 48/74/51 49/72/51 17/73/51
f 47/76/52 48/74/52 16/75/52
f 46/78/53 47/76/53 15/77/53
f 45/80/54 46/78/54 14/79/54
f 44/82/55 45/80/55 13/81/55
f 43/84/56 44/136/56 12/85/56
f 42/87/57 43/84/57 11/86/57
f 41/89/58 42/87/58 10/88/58
f 40/91/59 41/89/59 9/90/59
f 39/93/60 40/91/60 8/92/60
f 38/95/61 39/93/61 7/94/61
f 37/97/62 38/95/62 6/96/62
f 36/99/63 37/97/63 5/98/63
f 35/101/64 36/137/64 4/102/64
f 34/104/65 35/101/65 3/103/65
