# Blender v2.82 (sub 7) OBJ File: 'Table.blend'
# www.blender.org
o Cylinder
v 0.001402 13.443740 -16.003925
v 0.001402 14.417217 -16.003925
v 3.122850 14.417217 -15.696493
v 3.122850 13.443740 -15.696493
v 6.124338 14.417217 -14.785997
v 6.124338 13.443740 -14.785997
v 8.890523 14.417217 -13.307437
v 8.890523 13.443740 -13.307437
v 11.315115 14.417216 -11.317637
v 11.315115 13.443739 -11.317637
v 13.304914 14.417215 -8.893045
v 13.304914 13.443738 -8.893045
v 14.783475 14.417215 -6.126863
v 14.783475 13.443737 -6.126863
v 15.693971 14.417215 -3.125375
v 15.693971 13.443737 -3.125375
v 16.001402 14.417213 -0.003927
v 16.001402 13.443736 -0.003927
v 15.693971 14.417213 3.117513
v 15.693971 13.443735 3.117513
v 14.783475 14.417213 6.119009
v 14.783475 13.443735 6.119009
v 13.304914 14.417212 8.885195
v 13.304914 13.443735 8.885195
v 11.315115 14.417212 11.309787
v 11.315115 13.443733 11.309787
v 8.890523 14.417211 13.299586
v 8.890523 13.443733 13.299586
v 6.124338 14.417211 14.778147
v 6.124338 13.443733 14.778147
v 3.122842 14.417211 15.688643
v 3.122842 13.443733 15.688643
v 0.001394 14.417211 15.996075
v 0.001394 13.443733 15.996075
v -3.120046 14.417211 15.688635
v -3.120046 13.443733 15.688635
v -6.121542 14.417211 14.778147
v -6.121542 13.443733 14.778147
v -8.887725 14.417211 13.299586
v -8.887725 13.443733 13.299586
v -11.312309 14.417212 11.309778
v -11.312309 13.443733 11.309778
v -13.302117 14.417212 8.885187
v -13.302117 13.443735 8.885187
v -14.780677 14.417213 6.118993
v -14.780677 13.443735 6.118993
v -15.691165 14.417213 3.117505
v -15.691165 13.443735 3.117505
v -15.998597 14.417213 -0.003943
v -15.998597 13.443736 -0.003943
v -15.691157 14.417215 -3.125391
v -15.691157 13.443737 -3.125391
v -14.780662 14.417215 -6.126879
v -14.780662 13.443737 -6.126879
v -13.302101 14.417215 -8.893069
v -13.302101 13.443738 -8.893069
v -11.312293 14.417216 -11.317645
v -11.312293 13.443739 -11.317645
v -8.887701 14.417217 -13.307453
v -8.887701 13.443740 -13.307453
v -6.121510 14.417217 -14.786005
v -6.121510 13.443740 -14.786005
v -3.120022 14.417217 -15.696493
v -3.120022 13.443740 -15.696493
v -0.638598 0.002207 -13.947694
v -0.638598 13.630890 -13.947693
v -0.638598 13.630890 -15.227694
v -0.638598 0.002207 -15.227695
v 0.641402 13.630890 -15.227694
v 0.641402 0.002207 -15.227695
v 0.641402 13.630890 -13.947693
v 0.641402 0.002207 -13.947694
v -0.638598 0.002201 13.939841
v -0.638598 0.002201 15.219842
v -0.638598 13.630884 15.219843
v -0.638598 13.630884 13.939842
v 0.641402 0.002201 15.219842
v 0.641402 13.630884 15.219843
v 0.641402 0.002201 13.939841
v 0.641402 13.630884 13.939842
v 14.037059 0.002195 0.675360
v 14.037059 13.630878 0.675361
v 14.037059 13.630878 -0.604639
v 14.037059 0.002195 -0.604640
v 15.317059 13.630878 -0.604639
v 15.317059 0.002195 -0.604640
v 15.317059 13.630878 0.675361
v 15.317059 0.002195 0.675360
v -14.034253 0.002195 0.675360
v -14.034253 0.002195 -0.604640
v -14.034253 13.630878 -0.604639
v -14.034253 13.630878 0.675361
v -15.314253 0.002195 -0.604640
v -15.314253 13.630878 -0.604639
v -15.314253 0.002195 0.675360
v -15.314253 13.630878 0.675361
v -14.406853 9.415049 0.396073
v -7.478654 14.282434 0.396073
v -7.478654 14.282434 -0.403927
v -14.406853 9.415050 -0.403927
v -7.078654 13.439384 -0.403927
v -14.006853 8.571999 -0.403927
v -7.078654 13.439384 0.396073
v -14.006853 8.571998 0.396073
v 14.409658 9.415049 0.396073
v 14.409658 9.415050 -0.403927
v 7.481458 14.282434 -0.403927
v 7.481458 14.282434 0.396073
v 14.009659 8.571999 -0.403927
v 7.081458 13.439375 -0.403927
v 14.009659 8.571998 0.396073
v 7.081458 13.439375 0.396073
v 0.387370 9.415046 14.416362
v 0.387370 14.282433 7.488153
v -0.412630 14.282433 7.488153
v -0.412630 9.415046 14.416362
v -0.412630 13.439383 7.088153
v -0.412630 8.571995 14.016362
v 0.387370 13.439383 7.088153
v 0.387370 8.571995 14.016362
v 0.387370 9.415052 -14.424214
v -0.412630 9.415052 -14.424214
v -0.412630 14.282436 -7.496007
v 0.387370 14.282436 -7.496007
v -0.412630 8.572001 -14.024215
v -0.412630 13.439386 -7.096007
v 0.387370 8.572001 -14.024215
v 0.387370 13.439386 -7.096007
v -0.487046 8.663878 -14.572358
v -14.685749 8.663876 -0.373655
v -14.685749 9.637352 -0.373655
v -0.487046 9.637356 -14.572358
v -14.120070 9.637352 0.192025
v 0.078634 9.637356 -14.006679
v -14.120070 8.663876 0.192025
v 0.078634 8.663878 -14.006679
v 0.489858 8.663878 -14.572358
v 0.489858 9.637356 -14.572358
v 14.688562 9.637352 -0.373655
v 14.688562 8.663876 -0.373655
v -0.075830 9.637356 -14.006679
v 14.122875 9.637352 0.192025
v -0.075830 8.663878 -14.006679
v 14.122875 8.663876 0.192025
v -0.487046 8.663872 14.564514
v -0.487046 9.637348 14.564514
v -14.685749 9.637352 0.365809
v -14.685749 8.663876 0.365809
v 0.078634 9.637348 13.998826
v -14.120070 9.637352 -0.199879
v 0.078634 8.663872 13.998826
v -14.120070 8.663876 -0.199879
v 0.489850 8.663872 14.564514
v 14.688555 8.663876 0.365801
v 14.688555 9.637352 0.365801
v 0.489850 9.637348 14.564514
v 14.122875 9.637352 -0.199879
v -0.075830 9.637348 13.998826
v 14.122875 8.663876 -0.199879
v -0.075830 8.663872 13.998826
vt 0.738809 0.344714
vt 0.755080 0.310432
vt 0.755080 0.344714
vt 0.738809 0.310432
vt 0.755080 0.270691
vt 0.738809 0.270691
vt 0.755080 0.227020
vt 0.738809 0.181096
vt 0.755080 0.181096
vt 0.755080 0.134684
vt 0.738809 0.134684
vt 0.755080 0.089567
vt 0.738809 0.089567
vt 0.755080 0.047480
vt 0.738809 0.010040
vt 0.755080 0.010040
vt 0.704314 0.345210
vt 0.720585 0.309297
vt 0.720585 0.345210
vt 0.704314 0.309297
vt 0.720585 0.268324
vt 0.704314 0.268324
vt 0.720585 0.223867
vt 0.704314 0.177632
vt 0.720585 0.177632
vt 0.720585 0.131398
vt 0.704314 0.131398
vt 0.720585 0.086940
vt 0.704314 0.086940
vt 0.720585 0.045967
vt 0.704314 0.045967
vt 0.720585 0.010055
vt 0.703337 0.010055
vt 0.687066 0.045967
vt 0.687066 0.010055
vt 0.703337 0.045967
vt 0.687066 0.086940
vt 0.703337 0.086940
vt 0.687066 0.131398
vt 0.703337 0.131398
vt 0.687066 0.177632
vt 0.703337 0.177632
vt 0.687066 0.223867
vt 0.703337 0.223867
vt 0.687066 0.268324
vt 0.703337 0.268324
vt 0.687066 0.309297
vt 0.703337 0.309297
vt 0.687066 0.345210
vt 0.721561 0.345209
vt 0.737833 0.309297
vt 0.737833 0.345209
vt 0.721561 0.309297
vt 0.737833 0.268324
vt 0.721561 0.268324
vt 0.737833 0.223866
vt 0.721561 0.223866
vt 0.737833 0.177632
vt 0.721561 0.177632
vt 0.737833 0.131397
vt 0.721561 0.131397
vt 0.737833 0.086940
vt 0.375186 0.014151
vt 0.437755 0.023215
vt 0.189885 0.040993
vt 0.721561 0.086940
vt 0.737832 0.045967
vt 0.721561 0.045967
vt 0.737832 0.010055
vt 0.630288 0.861716
vt 0.654701 0.681206
vt 0.667147 0.726771
vt 0.136842 0.066804
vt 0.496693 0.040993
vt 0.549736 0.066804
vt 0.091733 0.099655
vt 0.056290 0.138283
vt 0.594846 0.099655
vt 0.630288 0.138284
vt 0.031877 0.181205
vt 0.654701 0.181205
vt 0.019431 0.226771
vt 0.019431 0.273229
vt 0.667147 0.226771
vt 0.667147 0.273229
vt 0.031877 0.318794
vt 0.654701 0.318795
vt 0.056290 0.361716
vt 0.630288 0.361717
vt 0.091732 0.400345
vt 0.594845 0.400345
vt 0.136842 0.433196
vt 0.189885 0.459007
vt 0.549736 0.433196
vt 0.496693 0.459007
vt 0.248823 0.476785
vt 0.437755 0.476786
vt 0.375186 0.485849
vt 0.594846 0.900345
vt 0.594846 0.599655
vt 0.630288 0.638284
vt 0.496693 0.959007
vt 0.549736 0.933196
vt 0.496693 0.540993
vt 0.549736 0.566804
vt 0.375186 0.985849
vt 0.437755 0.976785
vt 0.311392 0.985849
vt 0.437755 0.523215
vt 0.248824 0.976786
vt 0.375186 0.514151
vt 0.189885 0.959007
vt 0.311392 0.514151
vt 0.136842 0.933196
vt 0.248823 0.523215
vt 0.136842 0.566804
vt 0.189885 0.540993
vt 0.056290 0.861717
vt 0.091732 0.900345
vt 0.031877 0.818795
vt 0.091732 0.599655
vt 0.019431 0.773229
vt 0.019431 0.726771
vt 0.031877 0.681206
vt 0.894101 0.356670
vt 0.912510 0.522564
vt 0.894101 0.522564
vt 0.913614 0.356670
vt 0.932023 0.522564
vt 0.913614 0.522564
vt 0.894130 0.004977
vt 0.913498 0.170870
vt 0.894130 0.170870
vt 0.952554 0.346717
vt 0.934145 0.180824
vt 0.952554 0.180824
vt 0.756349 0.650064
vt 0.782383 0.631105
vt 0.782383 0.650064
vt 0.842587 0.650064
vt 0.868621 0.631105
vt 0.868621 0.650064
vt 0.894101 0.698410
vt 0.912510 0.532517
vt 0.912510 0.698410
vt 0.743317 0.536088
vt 0.724909 0.701981
vt 0.724909 0.536088
vt 0.723775 0.360241
vt 0.704407 0.526134
vt 0.704407 0.360241
vt 0.933128 0.522564
vt 0.951536 0.356670
vt 0.951536 0.522564
vt 0.809979 0.650064
vt 0.783945 0.631105
vt 0.809979 0.631105
vt 0.841025 0.650064
vt 0.814991 0.631105
vt 0.841025 0.631105
vt 0.914632 0.180824
vt 0.933040 0.346717
vt 0.914632 0.346717
vt 0.913614 0.532517
vt 0.932023 0.698410
vt 0.913614 0.698410
vt 0.913498 0.346717
vt 0.894130 0.180824
vt 0.913498 0.180824
vt 0.722787 0.701981
vt 0.704378 0.536088
vt 0.722787 0.536088
vt 0.783945 0.670161
vt 0.809979 0.651202
vt 0.809979 0.670161
vt 0.756349 0.670161
vt 0.782383 0.651202
vt 0.782383 0.670161
vt 0.744306 0.360241
vt 0.724937 0.526134
vt 0.724937 0.360241
vt 0.914632 0.170870
vt 0.933040 0.004977
vt 0.933040 0.170870
vt 0.934145 0.170870
vt 0.952554 0.004977
vt 0.952554 0.170870
vt 0.951536 0.532517
vt 0.933128 0.698410
vt 0.933128 0.532517
vt 0.842587 0.651202
vt 0.868621 0.670161
vt 0.842587 0.670161
vt 0.814991 0.651202
vt 0.841025 0.670161
vt 0.814991 0.670161
vt 0.687066 0.467120
vt 0.703337 0.569740
vt 0.687066 0.569740
vt 0.970790 0.205363
vt 0.985343 0.114930
vt 0.985343 0.208608
vt 0.969865 0.214475
vt 0.953594 0.111855
vt 0.969865 0.111855
vt 0.985010 0.223707
vt 0.999563 0.314140
vt 0.985010 0.317385
vt 0.754841 0.557729
vt 0.744189 0.549812
vt 0.754841 0.546645
vt 0.842145 0.682154
vt 0.853439 0.674328
vt 0.853439 0.685327
vt 0.703337 0.575897
vt 0.687066 0.678517
vt 0.687066 0.575897
vt 0.969773 0.357846
vt 0.984326 0.448280
vt 0.969773 0.451525
vt 0.953594 0.105698
vt 0.969865 0.003079
vt 0.969865 0.105698
vt 0.969773 0.551019
vt 0.984326 0.460586
vt 0.984326 0.554264
vt 0.865411 0.671155
vt 0.854117 0.685327
vt 0.854117 0.674328
vt 0.744189 0.542623
vt 0.754841 0.534705
vt 0.754841 0.545790
vt 0.968848 0.457392
vt 0.952577 0.354772
vt 0.968848 0.354772
vt 0.969773 0.653758
vt 0.984326 0.563325
vt 0.984326 0.657003
vt 0.968848 0.674946
vt 0.952577 0.572326
vt 0.968848 0.572326
vt 0.953551 0.223346
vt 0.968394 0.317176
vt 0.953551 0.319985
vt 0.754841 0.603047
vt 0.744189 0.595130
vt 0.754841 0.591963
vt 0.744189 0.561751
vt 0.754841 0.576002
vt 0.744189 0.572835
vt 0.952577 0.566169
vt 0.968848 0.463549
vt 0.968848 0.566169
vt 0.970790 0.006153
vt 0.985344 0.096586
vt 0.970790 0.099831
vt 0.687066 0.460963
vt 0.703337 0.358343
vt 0.703337 0.460963
vt 0.984128 0.223346
vt 0.969285 0.317176
vt 0.969285 0.220537
vt 0.754841 0.576857
vt 0.744189 0.591108
vt 0.744189 0.580024
vt 0.754841 0.610236
vt 0.744189 0.618153
vt 0.744189 0.607069
vt 0.807799 0.008923
vt 0.824070 0.306345
vt 0.807799 0.306345
vt 0.875813 0.621614
vt 0.859542 0.324191
vt 0.875813 0.324191
vt 0.806823 0.621614
vt 0.790552 0.324191
vt 0.806823 0.324191
vt 0.858565 0.324191
vt 0.842294 0.621614
vt 0.842294 0.324191
vt 0.814698 0.682935
vt 0.830945 0.671085
vt 0.830945 0.682935
vt 0.789575 0.671085
vt 0.773304 0.682935
vt 0.773304 0.671085
vt 0.876789 0.324178
vt 0.893060 0.621174
vt 0.876789 0.621174
vt 0.841318 0.306345
vt 0.825047 0.008923
vt 0.841318 0.008923
vt 0.773304 0.306345
vt 0.789575 0.008923
vt 0.789575 0.306345
vt 0.859542 0.008923
vt 0.875813 0.306345
vt 0.859542 0.306345
vt 0.886162 0.667862
vt 0.869890 0.656013
vt 0.886162 0.656013
vt 0.756056 0.671085
vt 0.772328 0.682935
vt 0.756056 0.682935
vt 0.772328 0.008923
vt 0.756056 0.306345
vt 0.756056 0.008923
vt 0.858566 0.008923
vt 0.842294 0.306345
vt 0.842294 0.008923
vt 0.893060 0.305906
vt 0.876789 0.008910
vt 0.893060 0.008910
vt 0.824070 0.621614
vt 0.807799 0.324191
vt 0.824070 0.324191
vt 0.869890 0.643452
vt 0.886162 0.655302
vt 0.869890 0.655302
vt 0.886162 0.680423
vt 0.869890 0.668573
vt 0.886162 0.668573
vt 0.756056 0.324191
vt 0.772328 0.621614
vt 0.756056 0.621614
vt 0.773304 0.621614
vt 0.789575 0.324191
vt 0.789575 0.621614
vt 0.806823 0.306345
vt 0.790552 0.008923
vt 0.806823 0.008923
vt 0.841318 0.324191
vt 0.825047 0.621614
vt 0.825047 0.324191
vt 0.886162 0.630892
vt 0.869890 0.642741
vt 0.869890 0.630892
vt 0.790550 0.682935
vt 0.806798 0.671085
vt 0.806798 0.682935
vt 0.738809 0.227020
vt 0.738809 0.047480
vt 0.704314 0.223867
vt 0.704314 0.010055
vt 0.703337 0.345210
vt 0.248824 0.023214
vt 0.311392 0.014151
vt 0.721561 0.010055
vt 0.667147 0.773229
vt 0.654701 0.818795
vt 0.311392 0.485849
vt 0.056290 0.638284
vt 0.912510 0.356670
vt 0.932023 0.356670
vt 0.913498 0.004977
vt 0.934145 0.346717
vt 0.756349 0.631105
vt 0.842587 0.631105
vt 0.894101 0.532517
vt 0.743317 0.701981
vt 0.723775 0.526134
vt 0.933128 0.356670
vt 0.783945 0.650064
vt 0.814991 0.650064
vt 0.933040 0.180824
vt 0.932023 0.532517
vt 0.894130 0.346717
vt 0.704378 0.701981
vt 0.783945 0.651202
vt 0.756349 0.651202
vt 0.744306 0.526134
vt 0.914632 0.004977
vt 0.934145 0.004977
vt 0.951536 0.698410
vt 0.868621 0.651202
vt 0.841025 0.651202
vt 0.703337 0.467120
vt 0.970790 0.111685
vt 0.953594 0.214475
vt 0.999563 0.220462
vt 0.744189 0.560896
vt 0.842145 0.671155
vt 0.703337 0.678517
vt 0.984326 0.354601
vt 0.953594 0.003079
vt 0.969773 0.457340
vt 0.865411 0.682154
vt 0.744189 0.531539
vt 0.952577 0.457392
vt 0.969773 0.560080
vt 0.952577 0.674946
vt 0.968394 0.220537
vt 0.744189 0.606214
vt 0.754841 0.564918
vt 0.952577 0.463549
vt 0.985344 0.002908
vt 0.687066 0.358343
vt 0.984128 0.319985
vt 0.754841 0.587941
vt 0.754841 0.621320
vt 0.824070 0.008923
vt 0.859542 0.621614
vt 0.790552 0.621614
vt 0.858565 0.621614
vt 0.814698 0.671085
vt 0.789575 0.682935
vt 0.893060 0.324178
vt 0.825047 0.306346
vt 0.773304 0.008923
vt 0.875813 0.008923
vt 0.869890 0.667862
vt 0.772328 0.671085
vt 0.772328 0.306345
vt 0.858565 0.306346
vt 0.876789 0.305906
vt 0.807799 0.621614
vt 0.886162 0.643452
vt 0.869890 0.680423
vt 0.772328 0.324191
vt 0.773304 0.324191
vt 0.790552 0.306345
vt 0.841318 0.621614
vt 0.886162 0.642741
vt 0.790550 0.671085
vn 0.0980 0.0000 -0.9952
vn 0.2903 0.0000 -0.9569
vn 0.4714 0.0000 -0.8819
vn 0.6344 0.0000 -0.7730
vn 0.7730 0.0000 -0.6344
vn 0.8819 0.0000 -0.4714
vn 0.9569 -0.0000 -0.2903
vn 0.9952 0.0000 -0.0980
vn 0.9952 -0.0000 0.0980
vn 0.9569 0.0000 0.2903
vn 0.8819 0.0000 0.4714
vn 0.7730 0.0000 0.6344
vn 0.6344 0.0000 0.7730
vn 0.4714 0.0000 0.8819
vn 0.2903 0.0000 0.9569
vn 0.0980 0.0000 0.9952
vn -0.0980 0.0000 0.9952
vn -0.2903 0.0000 0.9569
vn -0.4714 0.0000 0.8819
vn -0.6344 0.0000 0.7730
vn -0.7730 0.0000 0.6344
vn -0.8819 0.0000 0.4714
vn -0.9569 0.0000 0.2903
vn -0.9952 -0.0000 0.0980
vn -0.9952 0.0000 -0.0980
vn -0.9569 0.0000 -0.2903
vn -0.8819 0.0000 -0.4714
vn -0.7730 0.0000 -0.6344
vn -0.6344 0.0000 -0.7730
vn -0.4714 0.0000 -0.8819
vn 0.0000 1.0000 0.0000
vn -0.2903 0.0000 -0.9569
vn -0.0980 0.0000 -0.9952
vn 0.0000 -1.0000 0.0000
vn -1.0000 -0.0000 0.0000
vn 0.0000 0.0000 -1.0000
vn 1.0000 0.0000 0.0000
vn 0.0000 -0.0000 1.0000
vn -0.5749 0.8183 0.0000
vn 0.5749 -0.8183 0.0000
vn -0.9035 -0.4287 -0.0000
vn 0.9035 0.4287 0.0000
vn 0.5749 0.8183 0.0000
vn -0.5749 -0.8183 0.0000
vn 0.9035 -0.4287 -0.0000
vn -0.9035 0.4287 0.0000
vn 0.0000 0.8183 0.5749
vn 0.0000 -0.8183 -0.5749
vn 0.0000 -0.4287 0.9035
vn 0.0000 0.4287 -0.9035
vn 0.0000 0.8183 -0.5749
vn 0.0000 -0.8183 0.5749
vn 0.0000 -0.4287 -0.9035
vn 0.0000 0.4287 0.9035
vn -0.7071 0.0000 -0.7071
vn 0.7071 0.0000 0.7071
vn 0.7071 0.0000 -0.7071
vn -0.7071 0.0000 0.7071
s 1
f 2/1/1 4/2/1 1/3/1
f 3/4/2 6/5/2 4/2/2
f 5/6/3 8/7/3 6/5/3
f 8/7/4 9/8/4 10/9/4
f 9/8/5 12/10/5 10/9/5
f 11/11/6 14/12/6 12/10/6
f 13/13/7 16/14/7 14/12/7
f 16/14/8 17/15/8 18/16/8
f 17/17/9 20/18/9 18/19/9
f 19/20/10 22/21/10 20/18/10
f 21/22/11 24/23/11 22/21/11
f 24/23/12 25/24/12 26/25/12
f 25/24/13 28/26/13 26/25/13
f 27/27/14 30/28/14 28/26/14
f 29/29/15 32/30/15 30/28/15
f 31/31/16 34/32/16 32/30/16
f 33/33/17 36/34/17 34/35/17
f 35/36/18 38/37/18 36/34/18
f 37/38/19 40/39/19 38/37/19
f 39/40/20 42/41/20 40/39/20
f 41/42/21 44/43/21 42/41/21
f 43/44/22 46/45/22 44/43/22
f 45/46/23 48/47/23 46/45/23
f 47/48/24 50/49/24 48/47/24
f 49/50/25 52/51/25 50/52/25
f 51/53/26 54/54/26 52/51/26
f 53/55/27 56/56/27 54/54/27
f 55/57/28 58/58/28 56/56/28
f 57/59/29 60/60/29 58/58/29
f 59/61/30 62/62/30 60/60/30
f 63/63/31 61/64/31 5/65/31
f 61/66/32 64/67/32 62/62/32
f 63/68/33 1/69/33 64/67/33
f 6/70/34 62/71/34 64/72/34
f 7/73/31 61/64/31 59/74/31
f 7/73/31 57/75/31 9/76/31
f 11/77/31 57/75/31 55/78/31
f 11/77/31 53/79/31 13/80/31
f 13/80/31 51/81/31 15/82/31
f 17/83/31 51/81/31 49/84/31
f 17/83/31 47/85/31 19/86/31
f 19/86/31 45/87/31 21/88/31
f 21/88/31 43/89/31 23/90/31
f 23/90/31 41/91/31 25/92/31
f 27/93/31 41/91/31 39/94/31
f 27/93/31 37/95/31 29/96/31
f 29/96/31 35/97/31 33/98/31
f 8/99/34 62/71/34 6/70/34
f 8/99/34 58/100/34 60/101/34
f 12/102/34 58/100/34 10/103/34
f 12/102/34 54/104/34 56/105/34
f 16/106/34 54/104/34 14/107/34
f 18/108/34 52/109/34 16/106/34
f 20/110/34 50/111/34 18/108/34
f 22/112/34 48/113/34 20/110/34
f 24/114/34 46/115/34 22/112/34
f 24/114/34 42/116/34 44/117/34
f 28/118/34 42/116/34 26/119/34
f 30/120/34 40/121/34 28/118/34
f 32/122/34 34/123/34 36/124/34
f 66/125/35 68/126/35 65/127/35
f 67/128/36 70/129/36 68/130/36
f 69/131/37 72/132/37 70/133/37
f 71/134/38 65/135/38 72/136/38
f 70/137/34 65/138/34 68/139/34
f 67/140/31 71/141/31 69/142/31
f 74/143/35 76/144/35 73/145/35
f 77/146/38 75/147/38 74/148/38
f 79/149/37 78/150/37 77/151/37
f 73/152/36 80/153/36 79/154/36
f 73/155/34 77/156/34 74/157/34
f 80/158/31 75/159/31 78/160/31
f 82/161/35 84/162/35 81/163/35
f 83/164/36 86/165/36 84/166/36
f 85/167/37 88/168/37 86/169/37
f 87/170/38 81/171/38 88/172/38
f 86/173/34 81/174/34 84/175/34
f 83/176/31 87/177/31 85/178/31
f 90/179/37 92/180/37 89/181/37
f 93/182/36 91/183/36 90/184/36
f 95/185/35 94/186/35 93/187/35
f 89/188/38 96/189/38 95/190/38
f 89/191/34 93/192/34 90/193/34
f 96/194/31 91/195/31 94/196/31
f 98/197/39 100/198/39 97/199/39
f 100/200/36 101/201/36 102/202/36
f 101/203/40 104/204/40 102/205/40
f 103/206/38 97/207/38 104/208/38
f 102/209/41 97/210/41 100/211/41
f 101/212/42 98/213/42 103/214/42
f 106/215/43 108/216/43 105/217/43
f 106/218/36 110/219/36 107/220/36
f 111/221/44 110/222/44 109/223/44
f 105/224/38 112/225/38 111/226/38
f 105/227/45 109/228/45 106/229/45
f 112/230/46 107/231/46 110/232/46
f 114/233/47 116/234/47 113/235/47
f 116/236/35 117/237/35 118/238/35
f 117/239/48 120/240/48 118/241/48
f 119/242/37 113/243/37 120/244/37
f 118/245/49 113/246/49 116/247/49
f 115/248/50 119/249/50 117/250/50
f 122/251/51 124/252/51 121/253/51
f 122/254/35 126/255/35 123/256/35
f 127/257/52 126/258/52 125/259/52
f 121/260/37 128/261/37 127/262/37
f 121/263/53 125/264/53 122/265/53
f 128/266/54 123/267/54 126/268/54
f 130/269/55 132/270/55 129/271/55
f 131/272/31 134/273/31 132/274/31
f 133/275/56 136/276/56 134/277/56
f 136/278/34 130/279/34 129/280/34
f 134/281/57 129/282/57 132/283/57
f 131/284/58 135/285/58 133/286/58
f 137/287/57 139/288/57 140/289/57
f 138/290/31 142/291/31 139/292/31
f 143/293/58 142/294/58 141/295/58
f 143/296/34 140/297/34 144/298/34
f 137/299/55 141/300/55 138/301/55
f 144/302/56 139/303/56 142/304/56
f 146/305/58 148/306/58 145/307/58
f 149/308/31 147/309/31 146/310/31
f 149/311/57 152/312/57 150/313/57
f 151/314/34 148/315/34 152/316/34
f 145/317/56 149/318/56 146/319/56
f 152/320/55 147/321/55 150/322/55
f 154/323/56 156/324/56 153/325/56
f 156/326/31 157/327/31 158/328/31
f 157/329/55 160/330/55 158/331/55
f 160/332/34 154/333/34 153/334/34
f 158/335/58 153/336/58 156/337/58
f 155/338/57 159/339/57 157/340/57
f 2/1/1 3/4/1 4/2/1
f 3/4/2 5/6/2 6/5/2
f 5/6/3 7/341/3 8/7/3
f 8/7/4 7/341/4 9/8/4
f 9/8/5 11/11/5 12/10/5
f 11/11/6 13/13/6 14/12/6
f 13/13/7 15/342/7 16/14/7
f 16/14/8 15/342/8 17/15/8
f 17/17/9 19/20/9 20/18/9
f 19/20/10 21/22/10 22/21/10
f 21/22/11 23/343/11 24/23/11
f 24/23/12 23/343/12 25/24/12
f 25/24/13 27/27/13 28/26/13
f 27/27/14 29/29/14 30/28/14
f 29/29/15 31/31/15 32/30/15
f 31/31/16 33/344/16 34/32/16
f 33/33/17 35/36/17 36/34/17
f 35/36/18 37/38/18 38/37/18
f 37/38/19 39/40/19 40/39/19
f 39/40/20 41/42/20 42/41/20
f 41/42/21 43/44/21 44/43/21
f 43/44/22 45/46/22 46/45/22
f 45/46/23 47/48/23 48/47/23
f 47/48/24 49/345/24 50/49/24
f 49/50/25 51/53/25 52/51/25
f 51/53/26 53/55/26 54/54/26
f 53/55/27 55/57/27 56/56/27
f 55/57/28 57/59/28 58/58/28
f 57/59/29 59/61/29 60/60/29
f 59/61/30 61/66/30 62/62/30
f 5/65/31 3/346/31 2/347/31
f 2/347/31 63/63/31 5/65/31
f 61/66/32 63/68/32 64/67/32
f 63/68/33 2/348/33 1/69/33
f 64/72/34 1/349/34 4/350/34
f 4/350/34 6/70/34 64/72/34
f 7/73/31 5/65/31 61/64/31
f 7/73/31 59/74/31 57/75/31
f 11/77/31 9/76/31 57/75/31
f 11/77/31 55/78/31 53/79/31
f 13/80/31 53/79/31 51/81/31
f 17/83/31 15/82/31 51/81/31
f 17/83/31 49/84/31 47/85/31
f 19/86/31 47/85/31 45/87/31
f 21/88/31 45/87/31 43/89/31
f 23/90/31 43/89/31 41/91/31
f 27/93/31 25/92/31 41/91/31
f 27/93/31 39/94/31 37/95/31
f 33/98/31 31/351/31 29/96/31
f 29/96/31 37/95/31 35/97/31
f 8/99/34 60/101/34 62/71/34
f 8/99/34 10/103/34 58/100/34
f 12/102/34 56/105/34 58/100/34
f 12/102/34 14/107/34 54/104/34
f 16/106/34 52/109/34 54/104/34
f 18/108/34 50/111/34 52/109/34
f 20/110/34 48/113/34 50/111/34
f 22/112/34 46/115/34 48/113/34
f 24/114/34 44/117/34 46/115/34
f 24/114/34 26/119/34 42/116/34
f 28/118/34 40/121/34 42/116/34
f 30/120/34 38/352/34 40/121/34
f 38/352/34 30/120/34 36/124/34
f 30/120/34 32/122/34 36/124/34
f 66/125/35 67/353/35 68/126/35
f 67/128/36 69/354/36 70/129/36
f 69/131/37 71/355/37 72/132/37
f 71/134/38 66/356/38 65/135/38
f 70/137/34 72/357/34 65/138/34
f 67/140/31 66/358/31 71/141/31
f 74/143/35 75/359/35 76/144/35
f 77/146/38 78/360/38 75/147/38
f 79/149/37 80/361/37 78/150/37
f 73/152/36 76/362/36 80/153/36
f 73/155/34 79/363/34 77/156/34
f 80/158/31 76/364/31 75/159/31
f 82/161/35 83/365/35 84/162/35
f 83/164/36 85/366/36 86/165/36
f 85/167/37 87/367/37 88/168/37
f 87/170/38 82/368/38 81/171/38
f 86/173/34 88/369/34 81/174/34
f 83/176/31 82/370/31 87/177/31
f 90/179/37 91/371/37 92/180/37
f 93/182/36 94/372/36 91/183/36
f 95/185/35 96/373/35 94/186/35
f 89/188/38 92/374/38 96/189/38
f 89/191/34 95/375/34 93/192/34
f 96/194/31 92/376/31 91/195/31
f 98/197/39 99/377/39 100/198/39
f 100/200/36 99/378/36 101/201/36
f 101/203/40 103/379/40 104/204/40
f 103/206/38 98/380/38 97/207/38
f 102/209/41 104/381/41 97/210/41
f 101/212/42 99/382/42 98/213/42
f 106/215/43 107/383/43 108/216/43
f 106/218/36 109/384/36 110/219/36
f 111/221/44 112/385/44 110/222/44
f 105/224/38 108/386/38 112/225/38
f 105/227/45 111/387/45 109/228/45
f 112/230/46 108/388/46 107/231/46
f 114/233/47 115/389/47 116/234/47
f 116/236/35 115/390/35 117/237/35
f 117/239/48 119/391/48 120/240/48
f 119/242/37 114/392/37 113/243/37
f 118/245/49 120/393/49 113/246/49
f 115/248/50 114/394/50 119/249/50
f 122/251/51 123/395/51 124/252/51
f 122/254/35 125/396/35 126/255/35
f 127/257/52 128/397/52 126/258/52
f 121/260/37 124/398/37 128/261/37
f 121/263/53 127/399/53 125/264/53
f 128/266/54 124/400/54 123/267/54
f 130/269/55 131/401/55 132/270/55
f 131/272/31 133/402/31 134/273/31
f 133/275/56 135/403/56 136/276/56
f 136/278/34 135/404/34 130/279/34
f 134/281/57 136/405/57 129/282/57
f 131/284/58 130/406/58 135/285/58
f 137/287/57 138/407/57 139/288/57
f 138/290/31 141/408/31 142/291/31
f 143/293/58 144/409/58 142/294/58
f 143/296/34 137/410/34 140/297/34
f 137/299/55 143/411/55 141/300/55
f 144/302/56 140/412/56 139/303/56
f 146/305/58 147/413/58 148/306/58
f 149/308/31 150/414/31 147/309/31
f 149/311/57 151/415/57 152/312/57
f 151/314/34 145/416/34 148/315/34
f 145/317/56 151/417/56 149/318/56
f 152/320/55 148/418/55 147/321/55
f 154/323/56 155/419/56 156/324/56
f 156/326/31 155/420/31 157/327/31
f 157/329/55 159/421/55 160/330/55
f 160/332/34 159/422/34 154/333/34
f 158/335/58 160/423/58 153/336/58
f 155/338/57 154/424/57 159/339/57
