# Blender v2.82 (sub 7) OBJ File: 'Bed_box.blend'
# www.blender.org
o Bed_Cube
v 14.852928 0.000000 -7.195611
v -15.892057 0.000000 -5.545608
v -15.892057 0.000000 -7.195608
v -15.892071 0.000000 7.654392
v -15.892071 0.000000 6.004392
v 14.852928 0.000000 7.654390
v 12.707901 8.270001 6.444390
v 14.852929 15.540000 -7.195611
v 14.852929 15.540000 7.654390
v 11.486184 10.200000 -7.195610
v 11.486184 10.200000 7.654390
v 11.486184 15.540000 7.654390
v 11.486184 15.540000 -7.195610
v 7.300000 10.200000 -7.195611
v 7.300000 10.200000 7.654391
v 7.300000 8.270001 -7.195611
v 7.300000 8.270001 7.654391
v -13.747101 8.270001 -7.195612
v -13.747101 8.270001 7.654391
v -13.747070 0.000000 7.654392
v 7.300000 0.000000 7.654391
v 11.486184 0.000000 7.654391
v 7.300000 0.000000 -7.195612
v -13.747057 0.000000 -7.195608
v 11.486184 0.000000 -7.195610
v -15.892072 11.580000 -7.195608
v -15.892072 11.580000 7.654393
v -13.747102 11.580000 7.654391
v -13.747070 11.580000 -7.195608
v -13.747070 11.580000 6.004393
v -15.892852 11.580000 6.026746
v -13.747070 8.270001 6.004393
v -15.892100 8.270001 6.004393
v -13.747070 11.580000 -5.545608
v -15.892072 11.580000 -5.545608
v -13.747070 8.270001 -5.545608
v -15.892072 8.270001 -5.545608
vt 0.000000 0.000000
vt 0.000000 0.000000
vt 0.000000 0.000000
vt 0.000000 0.000000
vt 0.000000 0.000000
vt 0.000000 0.000000
vt 0.000000 0.000000
vt 0.000000 0.000000
vt 0.000000 0.000000
vt 0.000000 0.000000
vt 0.000000 0.000000
vt 0.000000 0.000000
vt 0.000000 0.000000
vt 0.000000 0.000000
vt 0.000000 0.000000
vt 0.000000 0.000000
vt 0.000000 0.000000
vt 0.000000 0.000000
vt 0.000000 0.000000
vt 0.000000 0.000000
vt 0.000000 0.000000
vt 0.000000 0.000000
vt 0.000000 0.000000
vt 0.000000 0.000000
vt 0.000000 0.000000
vt 0.000000 0.000000
vt 0.000000 0.000000
vt 0.000000 0.000000
vt 0.000000 0.000000
vt 0.000000 0.000000
vt 0.000000 0.000000
vt 0.000000 0.000000
vt 0.000000 0.000000
vt 0.000000 0.000000
vt 0.000000 0.000000
vt 0.000000 0.000000
vn 0.0000 0.0000 -1.0000
vn -1.0000 -0.0000 0.0000
vn 0.0000 0.0000 1.0000
vn -1.0000 -0.0001 0.0000
vn 0.0000 1.0000 0.0000
vn 1.0000 -0.0000 0.0000
vn -1.0000 0.0000 0.0005
vn -0.0104 0.0068 -0.9999
s off
f 3/1/1 29/2/1 24/3/1
f 2/4/2 26/5/2 3/1/2
f 28/6/3 4/7/3 20/8/3
f 4/7/4 31/9/4 5/10/4
f 36/11/3 35/12/3 37/13/3
f 37/13/5 32/14/5 36/11/5
f 6/15/6 8/16/6 9/17/6
f 13/18/5 9/17/5 8/16/5
f 13/18/2 11/19/2 12/20/2
f 15/21/5 10/22/5 14/23/5
f 14/23/2 17/24/2 15/21/2
f 12/20/3 6/15/3 9/17/3
f 1/25/1 13/18/1 8/16/1
f 31/9/5 28/6/5 30/26/5
f 30/26/6 19/27/6 32/14/6
f 33/28/1 30/26/1 32/14/1
f 29/2/6 36/11/6 18/29/6
f 29/2/5 35/12/5 34/30/5
f 37/13/2 5/10/2 33/28/2
f 3/1/1 26/5/1 29/2/1
f 2/4/2 35/12/2 26/5/2
f 28/6/3 27/31/3 4/7/3
f 4/7/7 27/31/7 31/9/7
f 36/11/3 34/30/3 35/12/3
f 37/13/5 33/28/5 32/14/5
f 6/15/6 1/25/6 8/16/6
f 13/18/5 12/20/5 9/17/5
f 13/18/2 10/22/2 11/19/2
f 15/21/5 11/19/5 10/22/5
f 14/23/2 16/32/2 17/24/2
f 12/20/3 22/33/3 6/15/3
f 1/25/1 25/34/1 13/18/1
f 31/9/5 27/31/5 28/6/5
f 30/26/6 28/6/6 19/27/6
f 33/28/8 31/9/8 30/26/8
f 29/2/6 34/30/6 36/11/6
f 29/2/5 26/5/5 35/12/5
f 37/13/2 2/4/2 5/10/2
f 19/27/5 16/32/5 18/29/5
f 20/8/3 17/24/3 19/27/3
f 21/35/3 11/19/3 15/21/3
f 16/32/1 24/3/1 18/29/1
f 25/34/1 14/23/1 10/22/1
f 19/27/5 17/24/5 16/32/5
f 20/8/3 21/35/3 17/24/3
f 21/35/3 22/33/3 11/19/3
f 16/32/1 23/36/1 24/3/1
f 25/34/1 23/36/1 14/23/1
